<svg id="svg" version="1.1" xmlns="http://www.w3.org/2000/svg" xmlns:xlink="http://www.w3.org/1999/xlink" width="400" height="400" viewBox="0, 0, 400,400"><g id="svgg"><path id="path0" d="M136.400 142.400 C 136.070 142.613,135.413 142.791,134.941 142.794 C 130.712 142.824,124.521 148.887,122.478 155.000 C 120.083 162.164,120.028 177.511,122.376 183.400 C 126.166 192.903,131.866 196.400,143.568 196.400 C 150.869 196.400,154.873 195.246,159.021 191.948 C 160.685 190.624,163.600 186.508,163.600 185.482 C 163.600 185.195,163.749 184.789,163.930 184.580 C 165.808 182.421,166.894 167.421,165.667 160.600 C 163.186 146.806,157.338 141.992,143.080 142.006 C 139.736 142.009,136.730 142.187,136.400 142.400 M43.600 144.184 C 43.600 144.518,44.088 144.885,44.700 145.011 C 49.256 145.946,50.050 146.708,51.771 151.800 C 52.366 153.560,53.006 155.360,53.194 155.800 C 53.523 156.570,55.233 161.320,56.074 163.800 C 56.516 165.104,56.837 165.952,57.588 167.800 C 57.856 168.460,58.338 169.810,58.658 170.800 C 58.978 171.790,59.397 172.960,59.588 173.400 C 59.918 174.158,61.595 178.807,62.474 181.400 C 62.916 182.704,63.237 183.552,63.988 185.400 C 64.256 186.060,64.738 187.410,65.058 188.400 C 65.679 190.320,65.917 190.939,66.938 193.300 L 67.587 194.800 71.348 194.800 L 75.109 194.800 75.754 193.440 C 76.109 192.691,76.400 191.827,76.400 191.520 C 76.400 191.212,76.543 190.789,76.718 190.580 C 76.893 190.371,77.265 189.480,77.545 188.600 C 77.824 187.720,78.199 186.640,78.377 186.200 C 78.555 185.760,78.920 184.860,79.188 184.200 C 79.456 183.540,79.938 182.190,80.258 181.200 C 80.578 180.210,80.997 179.040,81.188 178.600 C 81.532 177.809,83.054 173.604,84.048 170.700 C 84.941 168.090,85.502 169.055,88.874 179.000 C 89.098 179.660,89.428 180.560,89.608 181.000 C 89.942 181.814,91.734 186.819,92.474 189.000 C 93.036 190.658,93.384 191.557,94.138 193.300 L 94.787 194.800 98.579 194.800 C 102.831 194.800,102.651 194.919,103.809 191.348 C 104.156 190.276,104.590 189.040,104.772 188.600 C 105.579 186.656,106.389 184.479,106.857 183.000 C 107.136 182.120,107.507 181.229,107.682 181.020 C 107.857 180.811,108.000 180.262,108.000 179.800 C 108.000 179.338,108.155 178.789,108.345 178.580 C 108.535 178.371,109.177 176.760,109.771 175.000 C 110.366 173.240,111.006 171.440,111.195 171.000 C 111.384 170.560,111.852 169.300,112.235 168.200 C 112.618 167.100,113.082 166.029,113.266 165.820 C 113.450 165.611,113.600 165.114,113.600 164.715 C 113.600 164.316,113.774 163.677,113.987 163.295 C 114.200 162.913,114.645 161.790,114.974 160.800 C 116.057 157.550,116.648 156.019,116.926 155.741 C 117.077 155.590,117.200 155.134,117.200 154.728 C 117.200 154.322,117.380 153.632,117.600 153.195 C 117.820 152.758,118.180 152.042,118.400 151.605 C 118.620 151.168,118.800 150.611,118.800 150.366 C 118.800 150.121,119.050 149.354,119.356 148.660 C 121.554 143.680,121.508 143.446,118.378 143.675 L 116.664 143.800 115.290 147.600 C 114.534 149.690,113.233 153.290,112.400 155.600 C 111.566 157.910,110.160 161.780,109.275 164.200 C 108.390 166.620,107.188 169.950,106.604 171.600 C 106.021 173.250,105.390 174.960,105.204 175.400 C 105.017 175.840,104.388 177.550,103.807 179.200 C 101.922 184.550,100.800 186.212,100.800 183.656 C 100.800 183.273,100.653 182.789,100.472 182.580 C 100.292 182.371,99.647 180.850,99.040 179.200 C 98.432 177.550,97.785 175.840,97.603 175.400 C 97.421 174.960,96.612 172.800,95.805 170.600 C 94.999 168.400,94.191 166.240,94.010 165.800 C 93.829 165.360,93.456 164.370,93.180 163.600 C 92.905 162.830,92.458 161.660,92.187 161.000 C 91.916 160.340,91.475 159.170,91.207 158.400 C 90.939 157.630,90.576 156.640,90.400 156.200 C 90.224 155.760,89.856 154.770,89.580 154.000 C 89.305 153.230,88.857 152.060,88.586 151.400 C 88.314 150.740,87.695 149.120,87.210 147.800 C 85.486 143.102,86.222 143.600,81.009 143.600 C 75.805 143.600,75.970 143.461,77.221 146.806 C 77.672 148.013,78.311 149.810,78.641 150.800 C 78.970 151.790,79.397 152.960,79.588 153.400 C 79.779 153.840,80.415 155.550,81.000 157.200 C 81.585 158.850,82.255 160.596,82.489 161.080 C 82.902 161.936,82.791 162.471,81.592 165.400 C 81.412 165.840,80.785 167.550,80.200 169.200 C 79.615 170.850,78.985 172.560,78.800 173.000 C 78.615 173.440,77.989 175.150,77.407 176.800 C 76.826 178.450,76.181 180.113,75.975 180.495 C 75.769 180.877,75.600 181.434,75.600 181.733 C 75.600 182.304,74.452 184.800,74.189 184.800 C 73.954 184.800,72.574 181.553,71.614 178.741 C 71.138 177.343,70.597 175.840,70.413 175.400 C 70.228 174.960,69.589 173.340,68.992 171.800 C 68.395 170.260,67.760 168.640,67.582 168.200 C 67.403 167.760,66.871 166.320,66.399 165.000 C 64.171 158.763,63.492 156.911,63.025 155.800 C 62.747 155.140,62.295 153.970,62.020 153.200 C 61.744 152.430,61.374 151.440,61.196 151.000 C 60.751 149.900,60.411 148.990,59.400 146.200 L 58.530 143.800 51.065 143.691 C 44.641 143.598,43.600 143.666,43.600 144.184 M173.784 144.100 C 173.679 144.375,173.639 155.850,173.696 169.600 L 173.800 194.600 178.600 194.600 L 183.400 194.600 183.600 170.800 L 183.800 147.000 189.200 147.050 C 195.095 147.104,196.655 147.576,198.738 149.937 C 201.986 153.620,202.100 160.830,198.975 165.036 C 197.459 167.078,190.273 169.910,188.847 169.029 C 188.591 168.871,188.400 169.019,188.400 169.376 C 188.400 169.719,188.580 170.000,188.800 170.000 C 189.020 170.000,189.200 170.176,189.200 170.391 C 189.200 170.606,190.640 173.040,192.400 175.800 C 194.160 178.560,195.600 180.912,195.600 181.026 C 195.600 181.140,195.781 181.451,196.001 181.717 C 196.697 182.554,199.200 186.371,199.200 186.594 C 199.200 186.712,199.787 187.661,200.504 188.704 C 201.221 189.747,202.069 191.110,202.390 191.734 C 203.883 194.643,204.298 194.818,209.587 194.772 C 212.243 194.749,214.400 194.564,214.400 194.360 C 214.400 193.999,213.714 192.668,213.091 191.820 C 211.895 190.192,205.200 180.299,205.200 180.160 C 205.200 180.064,203.940 178.155,202.400 175.916 C 199.503 171.705,199.127 170.800,200.272 170.800 C 203.276 170.800,208.109 168.037,209.908 165.292 C 211.855 162.319,212.317 154.717,210.752 151.387 C 209.280 148.255,205.390 145.437,201.400 144.612 C 200.740 144.476,199.480 144.200,198.600 144.000 C 195.997 143.406,174.015 143.495,173.784 144.100 M222.097 169.100 L 222.200 194.600 236.400 194.703 C 252.849 194.823,252.400 194.870,252.400 193.019 C 252.400 191.202,252.396 191.201,242.995 191.236 C 238.598 191.252,234.510 191.251,233.910 191.233 C 231.603 191.163,231.600 191.129,231.600 166.220 L 231.600 143.600 226.797 143.600 L 221.994 143.600 222.097 169.100 M258.497 169.100 L 258.600 194.600 267.000 194.708 C 285.183 194.940,290.922 193.675,295.702 188.381 C 303.234 180.038,303.033 157.637,295.353 149.585 C 290.539 144.538,286.633 143.600,270.431 143.600 L 258.394 143.600 258.497 169.100 M147.667 145.950 C 150.631 147.233,152.903 150.129,154.139 154.200 C 156.434 161.757,156.180 179.056,153.680 185.524 C 151.276 191.742,144.907 194.642,139.040 192.191 C 137.361 191.490,134.400 188.687,134.400 187.800 C 134.400 187.470,134.220 187.200,134.000 187.200 C 133.780 187.200,133.600 186.876,133.600 186.480 C 133.600 186.084,133.445 185.589,133.256 185.380 C 130.986 182.874,130.478 162.131,132.510 154.983 C 134.781 146.998,141.220 143.160,147.667 145.950 M280.947 147.587 C 281.174 147.814,281.688 148.000,282.088 148.000 C 284.319 148.000,289.200 153.158,289.200 155.515 C 289.200 155.914,289.358 156.411,289.550 156.620 C 290.132 157.252,290.800 163.948,290.800 169.150 C 290.800 185.563,286.678 191.200,274.676 191.200 L 270.321 191.200 269.160 189.958 L 268.000 188.715 268.000 168.024 C 268.000 156.644,268.135 147.191,268.300 147.017 C 268.730 146.563,280.452 147.092,280.947 147.587 M139.132 203.002 C 139.021 203.112,137.866 203.399,136.565 203.639 C 128.940 205.045,123.490 210.661,121.659 219.000 C 120.304 225.170,120.306 235.555,121.663 241.800 C 123.631 250.856,129.410 256.290,138.210 257.359 C 139.678 257.538,163.289 257.736,168.300 257.612 C 169.792 257.575,168.540 256.471,166.500 256.024 C 160.116 254.627,159.510 253.665,162.276 249.319 C 163.004 248.175,163.600 246.970,163.600 246.643 C 163.600 246.315,163.780 245.936,164.000 245.800 C 164.220 245.664,164.400 245.149,164.400 244.656 C 164.400 244.163,164.553 243.589,164.740 243.380 C 166.021 241.950,166.650 227.285,165.666 221.800 C 163.583 210.186,159.595 205.722,149.094 203.249 C 147.207 202.804,139.520 202.613,139.132 203.002 M173.600 224.238 C 173.600 244.027,173.744 246.219,175.217 248.895 C 175.428 249.277,175.600 249.770,175.600 249.990 C 175.600 251.045,179.275 254.635,181.200 255.460 C 185.428 257.273,186.031 257.367,193.600 257.383 C 205.510 257.410,208.784 255.600,212.018 247.200 C 212.437 246.111,212.590 241.244,212.705 225.300 L 212.852 204.800 210.226 204.800 L 207.600 204.800 207.600 224.043 C 207.600 246.230,207.464 247.478,204.714 250.603 C 199.684 256.318,187.768 255.609,185.026 249.432 C 183.652 246.337,183.600 245.455,183.600 225.140 L 183.600 204.800 178.600 204.800 L 173.600 204.800 173.600 224.238 M216.475 205.494 C 216.560 205.935,217.118 206.272,218.004 206.419 C 220.860 206.892,221.903 207.788,223.105 210.800 C 224.238 213.638,224.798 215.149,225.257 216.600 C 225.536 217.480,225.907 218.371,226.082 218.580 C 226.257 218.789,226.400 219.338,226.400 219.800 C 226.400 220.262,226.555 220.811,226.745 221.020 C 226.935 221.229,227.577 222.840,228.171 224.600 C 228.766 226.360,229.406 228.160,229.594 228.600 C 229.782 229.040,230.411 230.750,230.993 232.400 C 231.574 234.050,232.219 235.713,232.425 236.095 C 232.631 236.477,232.800 237.122,232.800 237.528 C 232.800 237.934,232.923 238.390,233.074 238.541 C 233.349 238.815,233.896 240.230,235.033 243.600 C 235.367 244.590,235.802 245.760,236.000 246.200 C 236.198 246.640,236.622 247.810,236.942 248.800 C 237.262 249.790,237.744 251.140,238.012 251.800 C 238.809 253.762,239.115 254.561,239.351 255.300 C 239.838 256.823,248.000 256.198,248.000 254.637 C 248.000 254.155,248.155 253.589,248.344 253.380 C 248.533 253.171,249.020 252.010,249.425 250.800 C 249.830 249.590,250.305 248.429,250.481 248.220 C 250.656 248.011,250.800 247.514,250.800 247.115 C 250.800 246.716,250.969 246.077,251.175 245.695 C 251.381 245.313,252.026 243.650,252.607 242.000 C 253.189 240.350,253.821 238.640,254.012 238.200 C 254.203 237.760,254.622 236.590,254.942 235.600 C 255.262 234.610,255.705 233.350,255.927 232.800 C 256.397 231.633,257.498 228.621,258.998 224.400 C 259.584 222.750,260.217 221.040,260.404 220.600 C 260.591 220.160,261.129 218.720,261.601 217.400 C 262.072 216.080,262.908 213.740,263.457 212.200 C 264.604 208.987,264.846 208.363,265.738 206.300 L 266.387 204.800 264.047 204.800 L 261.707 204.800 260.837 207.300 C 260.358 208.675,259.794 210.113,259.583 210.495 C 259.372 210.877,259.200 211.516,259.200 211.915 C 259.200 212.314,259.056 212.811,258.881 213.020 C 258.705 213.229,258.230 214.390,257.825 215.600 C 257.420 216.810,256.933 217.971,256.744 218.180 C 256.555 218.389,256.400 218.968,256.400 219.466 C 256.400 221.007,255.295 221.200,246.526 221.195 C 237.566 221.189,236.584 221.080,236.268 220.063 C 235.958 219.063,234.389 214.710,234.011 213.800 C 233.828 213.360,233.192 211.740,232.599 210.200 C 232.006 208.660,231.358 207.087,231.160 206.705 C 230.962 206.323,230.800 205.738,230.800 205.405 C 230.800 204.887,229.759 204.800,223.571 204.800 C 216.925 204.800,216.352 204.856,216.475 205.494 M271.600 230.400 L 271.600 256.000 273.800 256.000 C 275.289 256.000,276.003 255.838,276.009 255.500 C 276.013 255.225,276.058 245.655,276.109 234.233 C 276.203 212.688,276.280 211.806,277.808 214.691 C 278.243 215.515,279.545 217.773,280.700 219.710 C 281.855 221.646,282.800 223.331,282.800 223.454 C 282.800 223.576,283.134 224.154,283.543 224.738 C 283.951 225.322,284.739 226.610,285.293 227.600 C 285.848 228.590,286.976 230.570,287.800 232.000 C 288.624 233.430,289.752 235.410,290.307 236.400 C 290.861 237.390,291.649 238.678,292.057 239.262 C 292.466 239.846,292.800 240.439,292.800 240.581 C 292.800 240.723,293.430 241.823,294.200 243.027 C 294.970 244.231,295.600 245.297,295.600 245.396 C 295.600 245.496,296.410 246.947,297.400 248.622 C 298.390 250.296,299.200 251.729,299.200 251.806 C 299.200 251.884,299.767 252.859,300.460 253.973 L 301.720 256.000 306.060 256.000 L 310.400 256.000 310.400 230.400 L 310.400 204.800 308.100 204.800 L 305.800 204.800 305.897 225.200 C 306.002 246.979,305.913 247.930,304.145 244.100 C 303.764 243.275,302.856 241.652,302.126 240.492 C 301.397 239.333,300.800 238.294,300.800 238.184 C 300.800 238.074,300.340 237.256,299.779 236.366 C 299.217 235.476,298.429 234.175,298.027 233.474 C 294.973 228.140,294.400 227.080,294.400 226.762 C 294.400 226.563,294.220 226.400,294.000 226.400 C 293.780 226.400,293.600 226.211,293.600 225.981 C 293.600 225.750,292.970 224.577,292.200 223.373 C 291.430 222.169,290.800 221.113,290.800 221.025 C 290.800 220.938,289.990 219.496,289.000 217.822 C 288.010 216.147,287.200 214.661,287.200 214.520 C 287.200 214.379,286.955 213.979,286.656 213.631 C 286.357 213.284,285.574 212.010,284.916 210.800 C 284.258 209.590,283.199 207.745,282.563 206.700 L 281.406 204.800 276.503 204.800 L 271.600 204.800 271.600 230.400 M314.800 206.391 L 314.800 207.983 322.500 208.091 L 330.200 208.200 330.303 232.100 L 330.406 256.000 335.203 256.000 L 340.000 256.000 340.000 232.243 C 340.000 210.948,340.066 208.460,340.633 208.243 C 340.981 208.109,344.581 208.000,348.633 208.000 L 356.000 208.000 356.000 206.400 L 356.000 204.800 335.400 204.800 L 314.800 204.800 314.800 206.391 M146.705 206.753 C 147.087 206.948,147.908 207.345,148.529 207.636 C 149.864 208.263,152.195 210.584,152.949 212.037 C 157.221 220.271,156.584 243.136,151.888 250.113 C 147.863 256.093,137.164 255.280,134.154 248.766 C 132.268 244.687,131.982 243.382,131.462 236.482 C 130.252 220.445,132.759 210.328,138.606 207.654 C 139.263 207.353,140.070 206.959,140.400 206.777 C 141.211 206.331,145.840 206.313,146.705 206.753 M254.285 225.100 C 253.977 226.135,251.996 231.674,251.604 232.600 C 251.417 233.040,250.785 234.750,250.200 236.400 C 249.615 238.050,248.977 239.760,248.782 240.200 C 248.587 240.640,248.069 242.080,247.630 243.400 C 246.700 246.193,245.226 246.424,245.206 243.780 C 245.203 243.329,245.051 242.789,244.870 242.580 C 244.688 242.371,244.295 241.390,243.998 240.400 C 243.700 239.410,243.339 238.420,243.197 238.200 C 243.054 237.980,242.623 236.900,242.238 235.800 C 241.853 234.700,241.387 233.440,241.202 233.000 C 241.017 232.560,240.367 230.850,239.758 229.200 C 239.149 227.550,238.489 225.983,238.291 225.718 C 237.442 224.579,238.551 224.400,246.470 224.400 C 253.924 224.400,254.479 224.450,254.285 225.100 M348.998 248.002 C 348.598 248.444,348.365 248.898,348.479 249.012 C 348.593 249.126,348.914 248.945,349.192 248.610 C 349.764 247.920,353.600 247.738,353.600 248.400 C 353.600 248.620,353.808 248.800,354.062 248.800 C 354.324 248.800,354.211 248.454,353.800 248.000 C 352.801 246.896,349.998 246.897,348.998 248.002 M347.500 249.430 C 345.880 251.070,348.079 255.753,350.701 256.245 C 354.012 256.867,357.358 252.232,355.372 249.776 C 354.780 249.045,354.755 249.087,354.948 250.508 C 355.195 252.332,354.516 254.530,353.792 254.252 C 353.510 254.144,353.188 254.403,353.077 254.828 C 352.361 257.567,348.283 254.909,348.000 251.518 C 347.890 250.202,347.665 249.262,347.500 249.430 M350.267 249.467 C 349.865 249.868,349.946 253.200,350.357 253.200 C 350.913 253.200,351.225 252.037,350.956 250.968 C 350.770 250.226,350.873 250.000,351.400 250.000 C 351.939 250.000,352.031 250.223,351.827 251.034 C 351.535 252.198,351.863 253.600,352.427 253.600 C 352.632 253.600,352.803 253.195,352.806 252.700 C 352.809 252.205,352.980 251.534,353.186 251.209 C 353.918 250.051,351.266 248.468,350.267 249.467 " stroke="none" fill="#1c1a1a" fill-rule="evenodd"></path><path id="path1" d="M0.642 42.300 C 0.509 65.565,0.292 155.385,0.158 241.900 L -0.084 399.200 112.491 399.200 C 174.408 399.200,264.202 399.080,312.034 398.934 L 399.000 398.668 398.832 326.434 C 398.684 262.879,398.629 257.660,398.373 283.000 C 398.214 298.840,397.930 315.850,397.742 320.800 L 397.401 329.800 397.087 324.800 C 396.915 322.050,396.681 316.655,396.568 312.812 C 396.438 308.380,396.202 305.725,395.923 305.553 C 395.648 305.383,395.515 303.995,395.567 301.841 C 395.620 299.628,395.498 298.400,395.225 298.400 C 394.957 298.400,394.800 299.727,394.800 302.000 C 394.800 305.710,394.405 306.452,393.200 305.000 C 392.926 304.670,392.445 304.400,392.132 304.400 C 391.506 304.400,389.633 302.451,389.613 301.778 C 389.586 300.876,386.954 298.800,385.838 298.800 C 385.004 298.800,384.774 298.646,384.945 298.200 C 385.096 297.805,384.931 297.600,384.462 297.600 C 383.683 297.600,381.600 295.633,381.600 294.897 C 381.600 294.355,378.845 291.600,378.303 291.600 C 378.086 291.600,377.986 289.761,378.065 287.204 C 378.221 282.127,378.442 282.400,374.167 282.400 L 371.200 282.400 371.200 279.880 C 371.200 276.698,370.888 276.400,367.553 276.400 C 364.381 276.400,363.600 276.636,363.600 277.597 C 363.600 277.988,363.352 278.786,363.049 279.371 C 362.133 281.136,361.916 279.713,361.697 270.509 C 361.507 262.515,360.800 258.697,360.800 265.661 C 360.800 268.538,360.716 268.897,360.000 269.084 C 359.257 269.278,359.196 269.653,359.147 274.347 C 359.104 278.344,359.028 278.982,358.782 277.400 C 358.443 275.223,358.336 260.284,358.665 261.100 C 358.776 261.375,359.122 261.600,359.433 261.600 C 360.513 261.600,359.873 258.426,358.611 257.522 C 358.397 257.368,358.217 256.393,358.211 255.355 C 358.201 253.647,357.591 252.637,357.078 253.479 C 356.970 253.655,356.818 276.720,356.741 304.734 C 356.628 345.513,356.498 355.753,356.088 356.093 C 355.428 356.640,44.521 356.281,43.972 355.732 C 43.691 355.451,43.368 147.631,43.645 145.400 C 43.672 145.180,43.675 144.869,43.650 144.709 C 43.448 143.387,43.164 44.999,43.360 44.218 L 43.615 43.200 144.908 43.156 C 200.618 43.132,245.480 42.976,244.600 42.808 C 243.720 42.641,229.500 42.390,213.000 42.250 C 196.500 42.110,179.850 41.923,176.000 41.833 C 172.150 41.743,166.056 41.654,162.457 41.635 C 157.086 41.606,155.952 41.502,156.125 41.051 C 156.362 40.434,153.913 40.229,139.578 39.666 C 135.055 39.489,131.137 39.209,130.871 39.044 C 130.140 38.592,130.710 38.005,131.924 37.959 C 133.652 37.893,130.789 37.173,127.400 36.820 L 124.600 36.529 127.476 36.465 C 130.193 36.404,131.340 35.981,130.387 35.392 C 130.090 35.209,130.102 34.959,130.425 34.569 C 131.211 33.623,130.554 32.800,129.013 32.800 C 128.236 32.800,127.600 32.653,127.600 32.474 C 127.600 31.553,124.634 30.800,121.010 30.800 C 117.095 30.800,116.479 30.547,117.183 29.233 C 117.413 28.801,117.445 28.351,117.253 28.233 C 117.061 28.114,116.819 26.550,116.715 24.757 C 116.527 21.504,116.523 21.494,114.863 20.115 C 113.948 19.355,113.197 18.524,113.194 18.267 C 113.182 17.425,110.914 15.200,110.067 15.200 C 109.612 15.200,109.094 14.939,108.915 14.619 C 108.687 14.211,107.700 14.003,105.595 13.919 L 102.600 13.800 102.358 10.800 C 102.059 7.085,101.935 6.801,99.991 5.363 C 99.126 4.723,98.415 3.861,98.409 3.447 C 98.399 2.609,96.702 0.945,95.274 0.372 C 94.722 0.150,75.462 0.000,47.616 0.000 L 0.883 0.000 0.642 42.300 M121.900 36.691 C 121.075 36.778,119.725 36.778,118.900 36.691 C 118.075 36.605,118.750 36.534,120.400 36.534 C 122.050 36.534,122.725 36.605,121.900 36.691 M247.400 42.800 C 247.253 43.038,247.721 43.200,248.553 43.200 C 249.323 43.200,250.064 43.020,250.200 42.800 C 250.347 42.562,249.879 42.400,249.047 42.400 C 248.277 42.400,247.536 42.580,247.400 42.800 M356.800 177.133 C 356.800 191.690,356.953 203.600,357.141 203.600 C 357.468 203.600,357.289 151.174,356.961 150.833 C 356.872 150.742,356.800 162.577,356.800 177.133 M356.000 206.400 C 356.000 207.280,356.071 208.000,356.158 208.000 C 356.245 208.000,356.385 207.280,356.469 206.400 C 356.552 205.520,356.481 204.800,356.311 204.800 C 356.140 204.800,356.000 205.520,356.000 206.400 M357.049 209.015 C 356.615 210.148,356.760 249.528,357.200 249.800 C 357.420 249.936,357.600 250.577,357.600 251.224 C 357.600 252.003,357.803 252.400,358.200 252.400 C 358.533 252.400,358.800 252.044,358.800 251.600 C 358.800 251.160,358.598 250.800,358.350 250.800 C 358.067 250.800,357.986 250.371,358.131 249.647 C 358.257 249.013,358.251 248.385,358.117 248.251 C 357.983 248.117,357.793 239.140,357.694 228.304 C 357.512 208.359,357.495 207.855,357.049 209.015 M398.509 244.800 C 398.509 245.790,398.587 246.195,398.682 245.700 C 398.778 245.205,398.778 244.395,398.682 243.900 C 398.587 243.405,398.509 243.810,398.509 244.800 M356.101 251.800 C 356.105 252.680,356.187 252.993,356.283 252.495 C 356.379 251.998,356.375 251.278,356.275 250.895 C 356.175 250.513,356.096 250.920,356.101 251.800 M395.701 296.600 C 395.705 297.480,395.787 297.793,395.883 297.295 C 395.979 296.798,395.975 296.078,395.875 295.695 C 395.775 295.313,395.696 295.720,395.701 296.600 M395.097 328.300 C 395.020 329.785,394.957 328.570,394.957 325.600 C 394.957 322.630,395.020 321.415,395.097 322.900 C 395.174 324.385,395.174 326.815,395.097 328.300 " stroke="none" fill="#fb5516" fill-rule="evenodd"></path><path id="path2" d="M0.079 62.900 C 0.147 116.726,0.196 121.559,0.422 96.400 C 0.858 47.690,0.847 0.000,0.400 0.000 C 0.135 0.000,0.027 21.181,0.079 62.900 M95.400 0.396 C 96.748 0.977,98.399 2.651,98.409 3.447 C 98.415 3.861,99.126 4.723,99.991 5.363 C 101.935 6.801,102.059 7.085,102.358 10.800 L 102.600 13.800 105.595 13.919 C 107.700 14.003,108.687 14.211,108.915 14.619 C 109.094 14.939,109.612 15.200,110.067 15.200 C 110.914 15.200,113.182 17.425,113.194 18.267 C 113.197 18.524,113.948 19.355,114.863 20.115 C 116.523 21.494,116.527 21.504,116.715 24.757 C 116.819 26.550,117.061 28.114,117.253 28.233 C 117.445 28.351,117.413 28.801,117.183 29.233 C 116.479 30.547,117.095 30.800,121.010 30.800 C 124.634 30.800,127.600 31.553,127.600 32.474 C 127.600 32.653,128.236 32.800,129.013 32.800 C 130.554 32.800,131.211 33.623,130.425 34.569 C 130.102 34.959,130.090 35.209,130.387 35.392 C 131.340 35.981,130.193 36.404,127.476 36.465 L 124.600 36.529 127.400 36.820 C 130.789 37.173,133.652 37.893,131.924 37.959 C 130.710 38.005,130.140 38.592,130.871 39.044 C 131.137 39.209,135.055 39.489,139.578 39.666 C 153.913 40.229,156.362 40.434,156.125 41.051 C 155.952 41.502,157.086 41.606,162.457 41.635 C 166.056 41.654,172.150 41.743,176.000 41.833 C 179.850 41.923,196.500 42.110,213.000 42.250 C 229.500 42.390,243.720 42.641,244.600 42.808 C 245.480 42.976,200.618 43.132,144.908 43.156 L 43.615 43.200 43.360 44.219 C 43.130 45.133,43.461 142.437,43.697 143.400 C 43.751 143.620,43.886 121.300,43.998 93.800 L 44.200 43.800 199.200 43.691 C 284.450 43.631,354.605 43.679,355.100 43.799 L 356.000 44.015 356.000 124.408 C 356.000 168.623,356.151 204.800,356.337 204.800 C 356.522 204.800,356.535 205.655,356.365 206.700 C 356.196 207.745,356.044 241.531,356.028 281.781 C 356.011 323.647,355.847 355.113,355.644 355.316 C 355.260 355.700,44.991 355.765,44.370 355.381 C 44.145 355.242,44.000 313.951,44.000 250.110 C 44.000 192.336,43.908 145.159,43.796 145.271 C 43.415 145.652,43.591 355.351,43.972 355.732 C 44.521 356.281,355.428 356.640,356.088 356.093 C 356.498 355.753,356.628 345.513,356.741 304.734 C 356.818 276.720,356.970 253.655,357.078 253.479 C 357.591 252.637,358.201 253.647,358.211 255.355 C 358.217 256.393,358.397 257.368,358.611 257.522 C 359.873 258.426,360.513 261.600,359.433 261.600 C 359.122 261.600,358.776 261.375,358.665 261.100 C 358.336 260.284,358.443 275.223,358.782 277.400 C 359.028 278.982,359.104 278.344,359.147 274.347 C 359.196 269.653,359.257 269.278,360.000 269.084 C 360.716 268.897,360.800 268.538,360.800 265.661 C 360.800 258.697,361.507 262.515,361.697 270.509 C 361.916 279.713,362.133 281.136,363.049 279.371 C 363.352 278.786,363.600 277.988,363.600 277.597 C 363.600 276.636,364.381 276.400,367.553 276.400 C 370.888 276.400,371.200 276.698,371.200 279.880 L 371.200 282.400 374.167 282.400 C 378.442 282.400,378.221 282.127,378.065 287.204 C 377.986 289.761,378.086 291.600,378.303 291.600 C 378.872 291.600,381.600 294.368,381.600 294.944 C 381.600 295.667,383.718 297.600,384.509 297.600 C 384.937 297.600,385.092 297.815,384.945 298.200 C 384.772 298.649,385.008 298.800,385.879 298.800 C 387.003 298.800,389.582 300.885,389.613 301.819 C 389.634 302.461,391.526 304.400,392.132 304.400 C 392.445 304.400,392.926 304.670,393.200 305.000 C 394.405 306.452,394.800 305.710,394.800 302.000 C 394.800 299.727,394.957 298.400,395.225 298.400 C 395.498 298.400,395.620 299.628,395.567 301.841 C 395.515 303.995,395.648 305.383,395.923 305.553 C 396.202 305.725,396.438 308.380,396.568 312.812 C 396.681 316.655,396.915 322.050,397.087 324.800 L 397.401 329.800 397.742 320.800 C 397.930 315.850,398.214 298.840,398.373 283.000 C 398.629 257.660,398.684 262.879,398.832 326.434 L 399.000 398.668 312.034 398.934 C 264.202 399.080,174.427 399.200,112.534 399.200 C 37.778 399.200,0.000 399.334,0.000 399.600 C 0.000 400.036,398.231 400.193,399.367 399.757 C 399.943 399.536,400.000 381.541,400.000 199.757 L 400.000 0.000 247.300 0.025 C 161.346 0.040,94.950 0.202,95.400 0.396 M118.900 36.691 C 119.725 36.778,121.075 36.778,121.900 36.691 C 122.725 36.605,122.050 36.534,120.400 36.534 C 118.750 36.534,118.075 36.605,118.900 36.691 M250.200 42.800 C 250.064 43.020,249.323 43.200,248.553 43.200 C 247.721 43.200,247.253 43.038,247.400 42.800 C 247.536 42.580,248.277 42.400,249.047 42.400 C 249.879 42.400,250.347 42.562,250.200 42.800 M357.301 177.300 C 357.400 191.765,357.328 203.600,357.141 203.600 C 356.953 203.600,356.800 191.690,356.800 177.133 C 356.800 162.577,356.872 150.742,356.961 150.833 C 357.049 150.925,357.202 162.835,357.301 177.300 M357.694 228.304 C 357.793 239.140,357.983 248.117,358.117 248.251 C 358.251 248.385,358.257 249.013,358.131 249.647 C 357.986 250.371,358.067 250.800,358.350 250.800 C 358.598 250.800,358.800 251.160,358.800 251.600 C 358.800 252.044,358.533 252.400,358.200 252.400 C 357.803 252.400,357.600 252.003,357.600 251.224 C 357.600 250.577,357.420 249.936,357.200 249.800 C 356.760 249.528,356.615 210.148,357.049 209.015 C 357.495 207.855,357.512 208.359,357.694 228.304 M398.682 245.700 C 398.587 246.195,398.509 245.790,398.509 244.800 C 398.509 243.810,398.587 243.405,398.682 243.900 C 398.778 244.395,398.778 245.205,398.682 245.700 M395.883 297.295 C 395.787 297.793,395.705 297.480,395.701 296.600 C 395.696 295.720,395.775 295.313,395.875 295.695 C 395.975 296.078,395.979 296.798,395.883 297.295 M394.957 325.600 C 394.957 328.570,395.020 329.785,395.097 328.300 C 395.174 326.815,395.174 324.385,395.097 322.900 C 395.020 321.415,394.957 322.630,394.957 325.600 " stroke="none" fill="#fb8523" fill-rule="evenodd"></path><path id="path3" d="M44.267 43.867 C 44.120 44.013,44.000 66.329,44.000 93.458 L 44.000 142.782 51.257 142.891 C 57.226 142.981,58.569 143.106,58.824 143.600 C 59.236 144.399,60.162 146.670,60.780 148.400 C 61.363 150.031,61.737 151.014,62.299 152.400 C 62.522 152.950,63.014 154.210,63.393 155.200 C 63.772 156.190,64.244 157.313,64.441 157.695 C 64.638 158.077,64.800 158.664,64.800 159.000 C 64.800 159.336,64.962 159.923,65.159 160.305 C 65.356 160.687,65.828 161.810,66.207 162.800 C 67.279 165.602,67.665 166.544,68.047 167.295 C 68.241 167.677,68.400 168.264,68.400 168.600 C 68.400 168.936,68.566 169.523,68.768 169.905 C 68.971 170.287,69.619 171.860,70.208 173.400 C 70.798 174.940,71.442 176.513,71.640 176.895 C 71.838 177.277,72.000 177.864,72.000 178.200 C 72.000 178.536,72.167 179.123,72.371 179.505 C 72.576 179.887,73.064 181.032,73.455 182.049 C 74.167 183.897,75.200 183.483,75.200 181.349 C 75.200 181.041,75.358 180.477,75.551 180.095 C 76.404 178.409,77.200 176.325,77.200 175.781 C 77.200 175.455,77.408 174.787,77.662 174.295 C 78.634 172.416,78.800 171.993,78.800 171.400 C 78.800 171.064,78.962 170.477,79.159 170.095 C 79.356 169.713,79.825 168.590,80.200 167.600 C 80.575 166.610,81.044 165.487,81.241 165.105 C 81.438 164.723,81.600 164.059,81.600 163.629 C 81.600 163.199,81.773 162.740,81.985 162.609 C 82.228 162.459,82.209 161.971,81.935 161.286 C 81.696 160.689,81.357 159.840,81.182 159.400 C 81.007 158.960,80.389 157.250,79.807 155.600 C 79.226 153.950,78.581 152.287,78.375 151.905 C 78.169 151.523,78.000 150.936,78.000 150.600 C 78.000 150.264,77.842 149.677,77.649 149.295 C 76.758 147.532,76.028 145.558,75.781 144.240 L 75.511 142.800 80.507 142.800 C 86.134 142.800,86.018 142.745,87.150 145.961 C 87.546 147.084,87.989 148.122,88.135 148.268 C 88.281 148.414,88.400 148.866,88.400 149.272 C 88.400 149.678,88.566 150.323,88.768 150.705 C 88.971 151.087,89.619 152.660,90.208 154.200 C 90.798 155.740,91.442 157.313,91.640 157.695 C 91.838 158.077,92.000 158.716,92.000 159.115 C 92.000 159.514,92.150 160.011,92.334 160.220 C 92.518 160.429,92.982 161.500,93.365 162.600 C 94.131 164.797,94.706 166.231,95.247 167.295 C 95.441 167.677,95.600 168.234,95.600 168.533 C 95.600 169.039,96.354 170.877,97.226 172.495 C 97.432 172.877,97.600 173.464,97.600 173.800 C 97.600 174.136,97.759 174.723,97.953 175.105 C 98.325 175.837,98.663 176.658,99.800 179.600 C 100.183 180.590,100.645 181.760,100.827 182.200 C 101.010 182.640,101.237 183.360,101.333 183.800 C 101.493 184.533,101.511 184.526,101.554 183.724 C 101.579 183.242,101.780 182.736,102.000 182.600 C 102.220 182.464,102.399 182.048,102.399 181.676 C 102.398 181.050,104.015 176.697,104.840 175.105 C 105.038 174.723,105.200 174.084,105.200 173.685 C 105.200 173.286,105.344 172.789,105.519 172.580 C 105.695 172.371,106.170 171.210,106.575 170.000 C 106.980 168.790,107.467 167.629,107.656 167.420 C 107.845 167.211,108.000 166.637,108.000 166.144 C 108.000 165.651,108.180 165.136,108.400 165.000 C 108.620 164.864,108.800 164.401,108.800 163.971 C 108.800 163.187,108.896 162.936,110.132 160.468 C 110.500 159.735,110.800 158.800,110.800 158.391 C 110.800 157.982,110.980 157.536,111.200 157.400 C 111.420 157.264,111.600 156.724,111.600 156.200 C 111.600 155.676,111.780 155.136,112.000 155.000 C 112.220 154.864,112.400 154.431,112.400 154.038 C 112.400 153.385,113.074 151.671,114.026 149.905 C 114.232 149.523,114.400 148.859,114.400 148.429 C 114.400 147.999,114.580 147.536,114.800 147.400 C 115.020 147.264,115.213 146.758,115.229 146.276 C 115.303 144.058,116.495 143.008,119.081 142.882 C 121.662 142.757,122.375 143.267,121.640 144.716 C 121.264 145.457,120.873 146.414,119.807 149.200 C 119.428 150.190,118.956 151.313,118.759 151.695 C 118.562 152.077,118.400 152.716,118.400 153.115 C 118.400 153.514,118.256 154.011,118.081 154.220 C 117.905 154.429,117.430 155.590,117.025 156.800 C 116.620 158.010,116.133 159.171,115.944 159.380 C 115.755 159.589,115.600 160.163,115.600 160.656 C 115.600 161.149,115.420 161.664,115.200 161.800 C 114.980 161.936,114.800 162.399,114.800 162.829 C 114.800 163.259,114.635 163.923,114.434 164.305 C 113.698 165.700,112.800 167.932,112.800 168.366 C 112.800 168.611,112.620 169.168,112.400 169.605 C 112.180 170.042,111.820 170.758,111.600 171.195 C 111.380 171.632,111.200 172.250,111.200 172.568 C 111.200 173.114,109.557 177.382,108.764 178.895 C 108.564 179.277,108.400 179.864,108.400 180.200 C 108.400 180.536,108.231 181.123,108.025 181.505 C 107.819 181.887,107.177 183.550,106.600 185.200 C 106.023 186.850,105.381 188.513,105.175 188.895 C 104.969 189.277,104.800 189.864,104.800 190.200 C 104.800 190.536,104.649 191.123,104.465 191.505 C 104.281 191.887,103.786 192.920,103.365 193.800 L 102.600 195.400 98.774 195.514 C 94.340 195.645,94.165 195.539,92.977 192.000 C 92.571 190.790,92.095 189.629,91.919 189.420 C 91.744 189.211,91.600 188.637,91.600 188.144 C 91.600 187.651,91.420 187.136,91.200 187.000 C 90.980 186.864,90.800 186.324,90.800 185.800 C 90.800 185.276,90.637 184.746,90.437 184.623 C 90.237 184.499,89.759 183.364,89.374 182.099 C 88.989 180.835,88.523 179.629,88.337 179.420 C 88.152 179.211,88.000 178.714,88.000 178.315 C 88.000 177.916,87.838 177.277,87.641 176.895 C 87.444 176.513,86.975 175.390,86.600 174.400 C 86.225 173.410,85.756 172.287,85.559 171.905 C 85.362 171.523,85.199 170.893,85.198 170.505 C 85.196 170.026,85.004 170.167,84.598 170.946 C 84.269 171.576,84.000 172.391,84.000 172.757 C 84.000 173.123,83.764 173.777,83.476 174.211 C 83.188 174.645,82.706 175.810,82.406 176.800 C 82.106 177.790,81.712 178.771,81.530 178.980 C 81.349 179.189,81.200 179.686,81.200 180.085 C 81.200 180.484,81.038 181.123,80.841 181.505 C 80.644 181.887,80.175 183.010,79.800 184.000 C 79.425 184.990,78.956 186.113,78.759 186.495 C 78.562 186.877,78.400 187.516,78.400 187.915 C 78.400 188.314,78.256 188.811,78.081 189.020 C 77.905 189.229,77.425 190.390,77.013 191.600 C 75.659 195.582,75.634 195.600,71.416 195.600 C 67.162 195.600,66.845 195.408,65.816 192.200 C 65.463 191.100,65.000 189.887,64.787 189.505 C 64.574 189.123,64.400 188.484,64.400 188.085 C 64.400 187.686,64.245 187.189,64.056 186.980 C 63.867 186.771,63.380 185.610,62.975 184.400 C 62.570 183.190,62.095 182.029,61.919 181.820 C 61.744 181.611,61.600 181.056,61.600 180.587 C 61.600 180.117,61.477 179.610,61.326 179.459 C 61.048 179.181,60.457 177.650,59.374 174.400 C 59.045 173.410,58.600 172.287,58.387 171.905 C 58.174 171.523,58.000 170.936,58.000 170.600 C 58.000 170.264,57.838 169.677,57.641 169.295 C 57.444 168.913,56.975 167.790,56.600 166.800 C 56.225 165.810,55.756 164.687,55.559 164.305 C 55.362 163.923,55.200 163.259,55.200 162.829 C 55.200 162.399,55.020 161.936,54.800 161.800 C 54.580 161.664,54.400 161.149,54.400 160.656 C 54.400 160.163,54.245 159.589,54.056 159.380 C 53.867 159.171,53.380 158.010,52.975 156.800 C 52.570 155.590,52.095 154.429,51.919 154.220 C 51.744 154.011,51.600 153.514,51.600 153.115 C 51.600 152.716,51.449 152.077,51.265 151.695 C 51.081 151.313,50.496 150.100,49.965 149.000 C 48.935 146.866,47.194 145.656,45.099 145.619 L 43.998 145.600 44.099 250.500 L 44.200 355.400 200.000 355.400 L 355.800 355.400 355.890 304.706 L 355.980 254.012 354.721 255.216 C 349.983 259.743,343.320 252.986,347.953 248.353 C 350.267 246.039,353.843 246.325,355.676 248.970 C 355.827 249.189,355.967 240.147,355.985 228.875 L 356.019 208.382 348.509 208.491 L 341.000 208.600 340.897 232.500 C 340.800 254.893,340.750 256.403,340.097 256.450 C 337.940 256.603,330.356 256.420,330.009 256.206 C 329.738 256.038,329.600 247.950,329.600 232.176 L 329.600 208.400 322.000 208.400 L 314.400 208.400 314.400 206.404 L 314.400 204.407 335.100 204.304 L 355.800 204.200 355.901 124.224 C 355.981 60.508,355.900 44.184,355.501 43.930 C 354.899 43.548,44.649 43.484,44.267 43.867 M151.380 142.040 C 151.589 142.238,152.126 142.400,152.574 142.400 C 154.714 142.400,162.000 147.533,162.000 149.040 C 162.000 149.348,162.139 149.600,162.309 149.600 C 162.479 149.600,162.949 150.275,163.353 151.100 C 163.758 151.925,164.249 152.913,164.444 153.295 C 164.640 153.677,164.800 154.341,164.800 154.771 C 164.800 155.201,164.956 155.649,165.147 155.767 C 165.338 155.885,165.607 156.751,165.746 157.691 C 165.885 158.631,166.166 160.390,166.370 161.600 C 166.834 164.344,166.848 173.856,166.392 176.800 C 166.205 178.010,165.927 179.855,165.774 180.900 C 165.621 181.945,165.339 182.800,165.148 182.800 C 164.957 182.800,164.791 183.205,164.781 183.700 C 164.770 184.195,164.455 185.167,164.081 185.860 C 163.706 186.553,163.061 187.775,162.647 188.575 C 161.833 190.149,157.768 194.000,156.920 194.000 C 156.634 194.000,156.400 194.180,156.400 194.400 C 156.400 194.620,156.070 194.800,155.667 194.800 C 155.263 194.800,154.810 194.923,154.659 195.074 C 152.732 197.001,136.384 197.740,134.620 195.979 C 134.411 195.771,133.950 195.600,133.595 195.600 C 130.406 195.600,122.400 188.058,122.400 185.054 C 122.400 184.720,122.240 184.348,122.044 184.227 C 121.688 184.007,121.601 183.604,120.698 178.000 C 119.663 171.576,120.345 158.919,121.959 154.600 C 124.201 148.600,130.460 142.400,134.275 142.400 C 134.696 142.400,135.211 142.229,135.420 142.020 C 136.220 141.221,150.533 141.238,151.380 142.040 M196.577 143.207 C 198.764 143.420,200.735 143.775,200.957 143.997 C 201.179 144.219,201.776 144.400,202.285 144.400 C 202.794 144.400,203.523 144.559,203.905 144.753 C 204.287 144.948,205.061 145.320,205.625 145.581 C 207.200 146.309,210.213 149.218,211.238 151.000 C 212.310 152.862,212.648 161.912,211.683 162.877 C 211.417 163.143,211.200 163.665,211.200 164.037 C 211.200 165.100,207.732 168.685,205.879 169.537 C 202.990 170.865,201.995 171.200,200.935 171.200 C 199.963 171.200,199.939 171.248,200.493 172.100 C 200.815 172.595,201.330 173.441,201.639 173.980 C 201.947 174.519,202.605 175.418,203.100 175.976 C 203.595 176.535,204.000 177.219,204.000 177.496 C 204.000 177.773,204.150 178.000,204.332 178.000 C 204.515 178.000,204.920 178.495,205.232 179.100 C 205.545 179.705,207.015 181.949,208.500 184.086 C 209.985 186.223,211.200 188.158,211.200 188.386 C 211.200 188.614,211.347 188.800,211.526 188.800 C 211.706 188.800,212.257 189.520,212.751 190.399 C 213.246 191.279,214.107 192.541,214.666 193.205 C 216.390 195.255,215.899 195.502,209.996 195.560 L 204.732 195.612 203.566 194.364 C 202.925 193.677,202.400 192.864,202.400 192.558 C 202.400 192.251,202.250 192.000,202.068 192.000 C 201.885 192.000,201.483 191.505,201.176 190.900 C 200.868 190.295,200.208 189.243,199.708 188.562 C 199.209 187.881,198.800 187.218,198.800 187.088 C 198.800 186.957,197.180 184.318,195.200 181.222 C 193.220 178.126,191.600 175.429,191.600 175.230 C 191.600 175.030,191.465 174.807,191.300 174.733 C 190.869 174.542,188.800 171.294,188.800 170.809 C 188.800 170.584,188.608 170.400,188.373 170.400 C 188.139 170.400,188.004 169.915,188.073 169.323 C 188.195 168.284,188.300 168.241,191.000 168.101 C 192.540 168.021,193.971 167.786,194.180 167.578 C 194.389 167.370,194.848 167.200,195.200 167.200 C 196.207 167.200,199.254 163.902,200.041 161.960 C 202.065 156.971,199.252 148.400,195.590 148.400 C 195.181 148.400,194.736 148.220,194.600 148.000 C 194.456 147.767,192.196 147.600,189.176 147.600 L 184.000 147.600 184.000 171.120 C 184.000 188.880,183.882 194.758,183.520 195.120 C 182.626 196.014,174.115 195.762,173.614 194.826 C 173.167 193.990,173.002 144.581,173.443 143.433 C 173.732 142.680,189.567 142.526,196.577 143.207 M232.000 166.000 C 232.153 183.611,232.320 189.209,232.710 189.893 C 233.213 190.773,233.357 190.787,242.910 190.893 L 252.600 191.000 252.720 193.087 C 252.877 195.802,253.929 195.645,236.400 195.511 L 221.800 195.400 221.696 169.600 C 221.639 155.410,221.681 143.569,221.789 143.288 C 221.936 142.901,223.188 142.803,226.892 142.888 L 231.800 143.000 232.000 166.000 M285.200 143.742 C 286.190 144.098,287.317 144.391,287.705 144.394 C 288.093 144.397,288.723 144.565,289.105 144.766 C 289.487 144.968,290.473 145.425,291.295 145.783 C 295.078 147.428,298.801 152.238,300.440 157.600 C 302.050 162.866,302.060 175.074,300.459 180.400 C 299.573 183.349,298.993 184.800,298.702 184.800 C 298.536 184.800,298.400 185.160,298.400 185.600 C 298.400 186.040,298.259 186.400,298.086 186.400 C 297.914 186.400,297.439 186.965,297.031 187.655 C 293.584 193.491,286.702 195.348,268.400 195.381 L 258.200 195.400 258.096 169.600 C 258.039 155.410,258.088 143.551,258.204 143.246 C 258.533 142.387,282.660 142.830,285.200 143.742 M139.364 146.615 C 137.250 147.638,135.321 149.477,134.555 151.200 C 133.115 154.441,132.800 155.308,132.800 156.040 C 132.800 156.487,132.611 157.206,132.379 157.639 C 131.634 159.032,131.834 178.512,132.625 181.588 C 133.940 186.697,137.180 191.600,139.240 191.600 C 139.632 191.600,140.064 191.780,140.200 192.000 C 140.336 192.220,141.866 192.400,143.600 192.400 C 145.334 192.400,146.864 192.220,147.000 192.000 C 147.136 191.780,147.574 191.600,147.973 191.600 C 149.459 191.600,153.600 185.935,153.600 183.902 C 153.600 183.604,153.760 183.189,153.957 182.980 C 154.861 182.016,155.369 164.040,154.646 158.600 C 154.313 156.095,152.513 150.698,151.934 150.467 C 151.750 150.393,151.600 150.148,151.600 149.921 C 151.600 149.201,148.645 146.756,147.492 146.522 C 146.882 146.398,146.286 146.140,146.168 145.948 C 145.703 145.196,141.430 145.615,139.364 146.615 M268.504 167.971 C 268.621 192.727,268.031 190.541,274.642 190.715 C 279.000 190.830,279.469 190.739,283.200 189.052 C 285.745 187.902,288.335 184.481,288.995 181.400 C 290.133 176.089,290.248 159.872,289.170 156.800 C 286.618 149.524,283.419 147.600,273.875 147.600 L 268.407 147.600 268.504 167.971 M150.738 203.017 C 151.982 203.357,153.313 203.807,153.695 204.017 C 154.077 204.228,154.662 204.400,154.995 204.400 C 155.328 204.400,155.600 204.580,155.600 204.800 C 155.600 205.020,155.868 205.200,156.195 205.200 C 157.189 205.200,161.982 209.415,161.993 210.300 C 161.997 210.575,162.139 210.800,162.309 210.800 C 162.479 210.800,162.949 211.475,163.353 212.300 C 163.758 213.125,164.249 214.113,164.444 214.495 C 164.640 214.877,164.800 215.541,164.800 215.971 C 164.800 216.401,164.956 216.849,165.147 216.967 C 165.338 217.085,165.607 217.951,165.746 218.891 C 165.885 219.831,166.166 221.590,166.370 222.800 C 166.836 225.556,166.855 235.133,166.401 237.800 C 166.213 238.900,165.943 240.610,165.799 241.600 C 165.656 242.590,165.391 243.760,165.210 244.200 C 165.029 244.640,164.649 245.630,164.365 246.400 C 163.785 247.974,162.075 250.873,161.508 251.243 C 160.946 251.611,161.316 253.680,162.000 253.997 C 162.330 254.150,163.003 254.484,163.495 254.738 C 163.987 254.992,164.874 255.200,165.466 255.200 C 167.635 255.200,169.248 256.077,169.118 257.187 L 169.000 258.200 153.600 258.170 C 136.107 258.136,134.409 257.914,129.469 255.019 C 127.747 254.010,124.998 251.294,124.171 249.784 C 121.776 245.414,121.572 244.805,120.692 239.400 C 119.877 234.392,120.288 219.164,121.254 218.566 C 121.445 218.449,121.600 217.887,121.600 217.318 C 121.600 215.710,124.185 210.725,126.143 208.557 C 128.215 206.262,132.040 204.164,136.200 203.040 C 139.091 202.259,147.909 202.245,150.738 203.017 M184.025 225.000 C 184.248 245.226,184.329 246.586,185.455 249.099 C 187.841 254.426,199.469 255.456,203.820 250.726 C 207.056 247.208,207.200 246.054,207.200 223.711 L 207.200 204.366 210.224 204.483 L 213.249 204.600 213.215 223.200 C 213.182 241.723,212.991 247.035,212.341 247.436 C 212.154 247.552,212.000 247.991,212.000 248.411 C 212.000 250.075,207.847 255.600,206.597 255.600 C 206.357 255.600,205.950 255.810,205.693 256.067 C 205.062 256.698,202.437 257.587,201.180 257.594 C 200.619 257.597,199.970 257.790,199.738 258.022 C 199.232 258.528,189.205 258.295,186.200 257.707 C 183.706 257.219,180.723 256.078,179.400 255.106 C 176.785 253.184,176.254 252.433,173.949 247.400 C 173.398 246.196,172.858 206.268,173.375 204.922 C 173.540 204.492,174.668 204.400,178.692 204.488 L 183.800 204.600 184.025 225.000 M231.200 205.200 C 231.200 205.640,231.380 206.000,231.600 206.000 C 231.820 206.000,232.000 206.414,232.000 206.920 C 232.000 207.426,232.150 208.011,232.334 208.220 C 232.518 208.429,232.982 209.500,233.365 210.600 C 234.131 212.797,234.706 214.231,235.247 215.295 C 235.441 215.677,235.600 216.341,235.600 216.771 C 235.600 217.201,235.766 217.655,235.969 217.781 C 236.172 217.906,236.457 218.547,236.601 219.205 C 236.745 219.862,236.984 220.401,237.132 220.403 C 237.279 220.404,241.399 220.449,246.286 220.503 C 256.303 220.612,255.145 220.983,256.593 217.200 C 256.972 216.210,257.444 215.087,257.641 214.705 C 257.838 214.323,258.000 213.648,258.000 213.205 C 258.000 212.762,258.180 212.400,258.400 212.400 C 258.620 212.400,258.800 212.082,258.800 211.694 C 258.800 211.306,259.175 210.001,259.633 208.794 C 260.090 207.587,260.598 206.150,260.760 205.600 C 261.028 204.688,261.278 204.589,263.587 204.479 C 266.566 204.337,267.197 204.735,266.259 206.165 C 265.897 206.719,265.600 207.528,265.600 207.962 C 265.600 208.397,265.420 208.864,265.200 209.000 C 264.980 209.136,264.800 209.599,264.800 210.029 C 264.800 210.459,264.638 211.123,264.441 211.505 C 264.244 211.887,263.775 213.010,263.400 214.000 C 263.025 214.990,262.556 216.113,262.359 216.495 C 262.162 216.877,262.000 217.464,262.000 217.800 C 262.000 218.136,261.831 218.723,261.625 219.105 C 261.419 219.487,260.777 221.150,260.200 222.800 C 259.623 224.450,258.981 226.113,258.775 226.495 C 258.569 226.877,258.400 227.516,258.400 227.915 C 258.400 228.314,258.256 228.811,258.081 229.020 C 257.905 229.229,257.430 230.390,257.025 231.600 C 256.620 232.810,256.133 233.971,255.944 234.180 C 255.755 234.389,255.600 234.886,255.600 235.285 C 255.600 235.684,255.420 236.368,255.200 236.805 C 254.980 237.242,254.620 237.958,254.400 238.395 C 254.180 238.832,254.000 239.541,254.000 239.971 C 254.000 240.401,253.834 240.855,253.631 240.981 C 253.428 241.106,253.135 241.786,252.980 242.491 C 252.714 243.703,252.571 244.066,251.600 245.995 C 251.380 246.432,251.200 247.064,251.200 247.400 C 251.200 247.736,251.038 248.323,250.841 248.705 C 250.644 249.087,250.175 250.210,249.800 251.200 C 249.425 252.190,248.956 253.313,248.759 253.695 C 248.562 254.077,248.400 254.756,248.400 255.204 C 248.400 256.306,247.255 256.614,243.400 256.551 C 238.747 256.475,238.800 256.486,238.800 255.595 C 238.800 255.152,238.641 254.477,238.447 254.095 C 238.065 253.344,237.679 252.402,236.607 249.600 C 236.228 248.610,235.756 247.487,235.559 247.105 C 235.362 246.723,235.200 246.059,235.200 245.629 C 235.200 245.199,235.020 244.736,234.800 244.600 C 234.580 244.464,234.400 243.949,234.400 243.456 C 234.400 242.963,234.245 242.389,234.056 242.180 C 233.867 241.971,233.380 240.810,232.975 239.600 C 232.570 238.390,232.095 237.229,231.919 237.020 C 231.744 236.811,231.600 236.314,231.600 235.915 C 231.600 235.516,231.431 234.877,231.225 234.495 C 231.019 234.113,230.377 232.450,229.800 230.800 C 229.223 229.150,228.581 227.487,228.375 227.105 C 228.169 226.723,228.000 226.059,228.000 225.629 C 228.000 225.199,227.841 224.749,227.648 224.630 C 227.454 224.510,227.202 224.004,227.088 223.506 C 226.973 223.008,226.502 221.613,226.040 220.406 C 225.578 219.199,225.200 217.894,225.200 217.506 C 225.200 217.118,225.020 216.800,224.800 216.800 C 224.580 216.800,224.400 216.386,224.400 215.880 C 224.400 215.374,224.245 214.789,224.056 214.580 C 223.867 214.371,223.379 213.210,222.971 212.000 C 222.155 209.575,220.971 207.600,220.334 207.600 C 218.421 207.600,215.600 206.272,215.600 205.372 L 215.600 204.400 223.400 204.400 C 230.933 204.400,231.200 204.427,231.200 205.200 M283.207 206.698 C 283.973 207.962,284.870 209.544,285.200 210.214 C 285.530 210.883,286.166 211.964,286.614 212.615 C 287.062 213.267,287.692 214.340,288.014 215.000 C 288.335 215.660,288.689 216.290,288.799 216.400 C 288.910 216.510,289.196 216.960,289.436 217.400 C 291.035 220.335,292.126 222.255,292.388 222.600 C 292.556 222.820,293.167 223.855,293.746 224.900 C 296.503 229.872,296.960 230.667,297.594 231.600 C 297.968 232.150,298.527 233.185,298.835 233.900 C 299.143 234.615,299.490 235.200,299.607 235.200 C 299.723 235.200,300.172 235.875,300.605 236.700 C 301.038 237.525,301.493 238.290,301.617 238.400 C 301.741 238.510,302.155 239.230,302.538 240.000 C 302.920 240.770,303.568 241.959,303.976 242.642 C 304.385 243.325,304.806 244.225,304.913 244.642 C 305.020 245.059,305.128 236.167,305.154 224.882 L 305.200 204.365 308.100 204.482 L 311.000 204.600 311.103 230.177 C 311.167 246.159,311.062 255.898,310.821 256.139 C 310.438 256.522,302.680 256.799,301.669 256.466 C 301.378 256.370,300.973 255.910,300.770 255.445 C 300.385 254.560,299.542 253.142,299.199 252.800 C 299.089 252.690,298.735 252.060,298.414 251.400 C 298.092 250.740,297.533 249.750,297.172 249.200 C 296.594 248.320,295.690 246.752,293.715 243.200 C 293.409 242.650,292.715 241.480,292.172 240.600 C 291.630 239.720,291.007 238.640,290.789 238.200 C 290.570 237.760,289.940 236.680,289.387 235.800 C 288.835 234.920,288.268 233.930,288.126 233.600 C 287.985 233.270,287.565 232.550,287.192 232.000 C 286.596 231.121,285.757 229.673,283.715 226.000 C 283.409 225.450,282.715 224.280,282.172 223.400 C 281.630 222.520,281.007 221.440,280.789 221.000 C 280.570 220.560,279.941 219.480,279.391 218.600 C 278.841 217.720,278.081 216.325,277.701 215.500 C 277.322 214.675,276.919 214.000,276.806 214.000 C 276.693 214.000,276.650 223.273,276.711 234.607 C 276.835 257.736,276.944 256.812,274.091 256.722 C 270.468 256.608,270.800 259.262,270.800 230.453 C 270.800 216.417,270.920 204.813,271.067 204.667 C 271.213 204.520,273.691 204.400,276.573 204.400 L 281.813 204.400 283.207 206.698 M141.000 207.288 C 137.751 208.327,135.612 210.024,134.555 212.400 C 133.115 215.641,132.800 216.508,132.800 217.240 C 132.800 217.687,132.615 218.398,132.389 218.820 C 131.877 219.778,131.830 240.725,132.338 242.058 C 132.535 242.576,133.025 244.080,133.426 245.400 C 135.600 252.553,142.071 255.679,148.288 252.581 C 150.287 251.585,150.814 251.029,152.326 248.326 C 155.401 242.829,156.118 221.883,153.471 214.880 C 151.114 208.641,146.174 205.633,141.000 207.288 M239.436 226.798 C 239.966 227.897,240.400 229.056,240.400 229.374 C 240.400 229.693,240.580 230.064,240.800 230.200 C 241.020 230.336,241.200 230.799,241.200 231.229 C 241.200 231.659,241.359 232.323,241.553 232.705 C 241.935 233.456,242.321 234.398,243.393 237.200 C 243.772 238.190,244.244 239.313,244.441 239.695 C 244.638 240.077,244.800 240.716,244.800 241.115 C 244.800 241.514,244.965 242.011,245.166 242.220 C 245.368 242.429,245.593 243.036,245.666 243.569 C 245.913 245.354,246.700 244.883,247.420 242.519 C 247.808 241.244,248.277 240.029,248.463 239.820 C 248.648 239.611,248.800 239.114,248.800 238.715 C 248.800 237.986,248.901 237.725,250.132 235.268 C 250.500 234.535,250.800 233.600,250.800 233.191 C 250.800 232.782,250.980 232.336,251.200 232.200 C 251.420 232.064,251.600 231.543,251.600 231.043 C 251.600 230.543,251.719 230.014,251.865 229.868 C 252.157 229.577,253.600 225.622,253.600 225.115 C 253.600 224.942,250.196 224.800,246.036 224.800 L 238.472 224.800 239.436 226.798 M350.705 248.683 C 351.202 248.779,351.922 248.775,352.305 248.675 C 352.687 248.575,352.280 248.496,351.400 248.501 C 350.520 248.505,350.207 248.587,350.705 248.683 M348.900 249.465 C 348.591 249.589,348.400 250.450,348.400 251.713 C 348.400 254.205,349.020 253.783,349.302 251.100 C 349.412 250.055,349.479 249.214,349.451 249.232 C 349.423 249.249,349.175 249.354,348.900 249.465 M353.602 249.803 C 354.004 250.286,354.015 250.649,353.654 251.442 C 353.184 252.473,353.337 253.200,354.024 253.200 C 354.723 253.200,354.463 249.710,353.743 249.434 C 353.189 249.221,353.167 249.279,353.602 249.803 M351.202 253.420 C 351.201 253.871,350.984 254.456,350.720 254.720 C 350.347 255.093,350.480 255.200,351.320 255.200 C 352.583 255.200,352.575 255.226,351.802 253.746 C 351.305 252.792,351.205 252.737,351.202 253.420 " stroke="none" fill="#fbfbfa" fill-rule="evenodd"></path><path id="path4" d="M138.600 141.480 C 137.060 141.568,135.629 141.812,135.420 142.020 C 135.211 142.229,134.696 142.400,134.275 142.400 C 130.460 142.400,124.201 148.600,121.959 154.600 C 120.345 158.919,119.663 171.576,120.698 178.000 C 121.601 183.604,121.688 184.007,122.044 184.227 C 122.240 184.348,122.400 184.720,122.400 185.054 C 122.400 188.058,130.406 195.600,133.595 195.600 C 133.950 195.600,134.411 195.771,134.620 195.979 C 136.384 197.740,152.732 197.001,154.659 195.074 C 154.810 194.923,155.263 194.800,155.667 194.800 C 156.070 194.800,156.400 194.620,156.400 194.400 C 156.400 194.180,156.634 194.000,156.920 194.000 C 157.768 194.000,161.833 190.149,162.647 188.575 C 163.061 187.775,163.706 186.553,164.081 185.860 C 164.455 185.167,164.770 184.195,164.781 183.700 C 164.791 183.205,164.957 182.800,165.148 182.800 C 165.339 182.800,165.621 181.945,165.774 180.900 C 165.927 179.855,166.205 178.010,166.392 176.800 C 166.848 173.856,166.834 164.344,166.370 161.600 C 166.166 160.390,165.885 158.631,165.746 157.691 C 165.607 156.751,165.338 155.885,165.147 155.767 C 164.956 155.649,164.800 155.201,164.800 154.771 C 164.800 154.341,164.640 153.677,164.444 153.295 C 164.249 152.913,163.758 151.925,163.353 151.100 C 162.949 150.275,162.479 149.600,162.309 149.600 C 162.139 149.600,162.000 149.348,162.000 149.040 C 162.000 147.533,154.714 142.400,152.574 142.400 C 152.126 142.400,151.589 142.238,151.380 142.040 C 150.931 141.615,142.603 141.250,138.600 141.480 M151.406 142.585 C 159.571 144.711,163.762 150.005,165.667 160.600 C 166.894 167.421,165.808 182.421,163.930 184.580 C 163.749 184.789,163.600 185.195,163.600 185.482 C 163.600 186.508,160.685 190.624,159.021 191.948 C 154.873 195.246,150.869 196.400,143.568 196.400 C 131.866 196.400,126.166 192.903,122.376 183.400 C 120.028 177.511,120.083 162.164,122.478 155.000 C 124.521 148.887,130.712 142.824,134.941 142.794 C 135.413 142.791,136.070 142.613,136.400 142.400 C 137.374 141.770,148.820 141.911,151.406 142.585 M44.000 143.182 C 44.000 143.430,46.761 143.623,51.265 143.691 L 58.530 143.800 59.400 146.200 C 60.411 148.990,60.751 149.900,61.196 151.000 C 61.374 151.440,61.744 152.430,62.020 153.200 C 62.295 153.970,62.747 155.140,63.025 155.800 C 63.492 156.911,64.171 158.763,66.399 165.000 C 66.871 166.320,67.403 167.760,67.582 168.200 C 67.760 168.640,68.395 170.260,68.992 171.800 C 69.589 173.340,70.228 174.960,70.413 175.400 C 70.597 175.840,71.138 177.343,71.614 178.741 C 72.574 181.553,73.954 184.800,74.189 184.800 C 74.452 184.800,75.600 182.304,75.600 181.733 C 75.600 181.434,75.769 180.877,75.975 180.495 C 76.181 180.113,76.826 178.450,77.407 176.800 C 77.989 175.150,78.615 173.440,78.800 173.000 C 78.985 172.560,79.615 170.850,80.200 169.200 C 80.785 167.550,81.412 165.840,81.592 165.400 C 82.791 162.471,82.902 161.936,82.489 161.080 C 82.255 160.596,81.585 158.850,81.000 157.200 C 80.415 155.550,79.779 153.840,79.588 153.400 C 79.397 152.960,78.970 151.790,78.641 150.800 C 78.311 149.810,77.672 148.013,77.221 146.806 C 75.970 143.461,75.805 143.600,81.009 143.600 C 86.222 143.600,85.486 143.102,87.210 147.800 C 87.695 149.120,88.314 150.740,88.586 151.400 C 88.857 152.060,89.305 153.230,89.580 154.000 C 89.856 154.770,90.224 155.760,90.400 156.200 C 90.576 156.640,90.939 157.630,91.207 158.400 C 91.475 159.170,91.916 160.340,92.187 161.000 C 92.458 161.660,92.905 162.830,93.180 163.600 C 93.456 164.370,93.829 165.360,94.010 165.800 C 94.191 166.240,94.999 168.400,95.805 170.600 C 96.612 172.800,97.421 174.960,97.603 175.400 C 97.785 175.840,98.432 177.550,99.040 179.200 C 99.647 180.850,100.292 182.371,100.472 182.580 C 100.653 182.789,100.800 183.273,100.800 183.656 C 100.800 186.212,101.922 184.550,103.807 179.200 C 104.388 177.550,105.017 175.840,105.204 175.400 C 105.390 174.960,106.021 173.250,106.604 171.600 C 107.188 169.950,108.390 166.620,109.275 164.200 C 110.160 161.780,111.566 157.910,112.400 155.600 C 113.233 153.290,114.534 149.690,115.290 147.600 L 116.664 143.800 118.378 143.675 C 121.508 143.446,121.554 143.680,119.356 148.660 C 119.050 149.354,118.800 150.121,118.800 150.366 C 118.800 150.801,118.600 151.282,117.662 153.095 C 117.408 153.587,117.200 154.322,117.200 154.728 C 117.200 155.134,117.077 155.590,116.926 155.741 C 116.648 156.019,116.057 157.550,114.974 160.800 C 114.645 161.790,114.200 162.913,113.987 163.295 C 113.774 163.677,113.600 164.316,113.600 164.715 C 113.600 165.114,113.450 165.611,113.266 165.820 C 113.082 166.029,112.618 167.100,112.235 168.200 C 111.852 169.300,111.384 170.560,111.195 171.000 C 111.006 171.440,110.366 173.240,109.771 175.000 C 109.177 176.760,108.535 178.371,108.345 178.580 C 108.155 178.789,108.000 179.338,108.000 179.800 C 108.000 180.262,107.857 180.811,107.682 181.020 C 107.507 181.229,107.136 182.120,106.857 183.000 C 106.389 184.479,105.579 186.656,104.772 188.600 C 104.590 189.040,104.156 190.276,103.809 191.348 C 102.651 194.919,102.831 194.800,98.579 194.800 L 94.787 194.800 94.138 193.300 C 93.384 191.557,93.036 190.658,92.474 189.000 C 91.734 186.819,89.942 181.814,89.608 181.000 C 89.428 180.560,89.098 179.660,88.874 179.000 C 85.502 169.055,84.941 168.090,84.048 170.700 C 83.054 173.604,81.532 177.809,81.188 178.600 C 80.997 179.040,80.578 180.210,80.258 181.200 C 79.938 182.190,79.456 183.540,79.188 184.200 C 78.920 184.860,78.555 185.760,78.377 186.200 C 78.199 186.640,77.824 187.720,77.545 188.600 C 77.265 189.480,76.893 190.371,76.718 190.580 C 76.543 190.789,76.400 191.212,76.400 191.520 C 76.400 191.827,76.109 192.691,75.754 193.440 L 75.109 194.800 71.348 194.800 L 67.587 194.800 66.938 193.300 C 65.917 190.939,65.679 190.320,65.058 188.400 C 64.738 187.410,64.256 186.060,63.988 185.400 C 63.237 183.552,62.916 182.704,62.474 181.400 C 61.595 178.807,59.918 174.158,59.588 173.400 C 59.397 172.960,58.978 171.790,58.658 170.800 C 58.338 169.810,57.856 168.460,57.588 167.800 C 56.837 165.952,56.516 165.104,56.074 163.800 C 55.233 161.320,53.523 156.570,53.194 155.800 C 53.006 155.360,52.363 153.560,51.765 151.800 C 50.594 148.356,49.594 146.639,48.378 145.988 C 47.260 145.390,44.000 144.841,44.000 145.252 C 44.000 145.443,44.495 145.609,45.100 145.619 C 47.194 145.656,48.935 146.866,49.965 149.000 C 50.496 150.100,51.081 151.313,51.265 151.695 C 51.449 152.077,51.600 152.716,51.600 153.115 C 51.600 153.514,51.744 154.011,51.919 154.220 C 52.095 154.429,52.570 155.590,52.975 156.800 C 53.380 158.010,53.867 159.171,54.056 159.380 C 54.245 159.589,54.400 160.163,54.400 160.656 C 54.400 161.149,54.580 161.664,54.800 161.800 C 55.020 161.936,55.200 162.399,55.200 162.829 C 55.200 163.259,55.362 163.923,55.559 164.305 C 55.756 164.687,56.225 165.810,56.600 166.800 C 56.975 167.790,57.444 168.913,57.641 169.295 C 57.838 169.677,58.000 170.264,58.000 170.600 C 58.000 170.936,58.174 171.523,58.387 171.905 C 58.600 172.287,59.045 173.410,59.374 174.400 C 60.457 177.650,61.048 179.181,61.326 179.459 C 61.477 179.610,61.600 180.117,61.600 180.587 C 61.600 181.056,61.744 181.611,61.919 181.820 C 62.095 182.029,62.570 183.190,62.975 184.400 C 63.380 185.610,63.867 186.771,64.056 186.980 C 64.245 187.189,64.400 187.686,64.400 188.085 C 64.400 188.484,64.574 189.123,64.787 189.505 C 65.000 189.887,65.463 191.100,65.816 192.200 C 66.845 195.408,67.162 195.600,71.416 195.600 C 75.634 195.600,75.659 195.582,77.013 191.600 C 77.425 190.390,77.905 189.229,78.081 189.020 C 78.256 188.811,78.400 188.314,78.400 187.915 C 78.400 187.516,78.562 186.877,78.759 186.495 C 78.956 186.113,79.425 184.990,79.800 184.000 C 80.175 183.010,80.644 181.887,80.841 181.505 C 81.038 181.123,81.200 180.484,81.200 180.085 C 81.200 179.686,81.349 179.189,81.530 178.980 C 81.712 178.771,82.106 177.790,82.406 176.800 C 82.706 175.810,83.188 174.645,83.476 174.211 C 83.764 173.777,84.000 173.123,84.000 172.757 C 84.000 172.391,84.269 171.576,84.598 170.946 C 85.004 170.167,85.196 170.026,85.198 170.505 C 85.199 170.893,85.362 171.523,85.559 171.905 C 85.756 172.287,86.225 173.410,86.600 174.400 C 86.975 175.390,87.444 176.513,87.641 176.895 C 87.838 177.277,88.000 177.916,88.000 178.315 C 88.000 178.714,88.152 179.211,88.337 179.420 C 88.523 179.629,88.989 180.835,89.374 182.099 C 89.759 183.364,90.237 184.499,90.437 184.623 C 90.637 184.746,90.800 185.276,90.800 185.800 C 90.800 186.324,90.980 186.864,91.200 187.000 C 91.420 187.136,91.600 187.651,91.600 188.144 C 91.600 188.637,91.744 189.211,91.919 189.420 C 92.095 189.629,92.571 190.790,92.977 192.000 C 94.165 195.539,94.340 195.645,98.774 195.514 L 102.600 195.400 103.365 193.800 C 103.786 192.920,104.281 191.887,104.465 191.505 C 104.649 191.123,104.800 190.536,104.800 190.200 C 104.800 189.864,104.969 189.277,105.175 188.895 C 105.381 188.513,106.023 186.850,106.600 185.200 C 107.177 183.550,107.819 181.887,108.025 181.505 C 108.231 181.123,108.400 180.536,108.400 180.200 C 108.400 179.864,108.564 179.277,108.764 178.895 C 109.557 177.382,111.200 173.114,111.200 172.568 C 111.200 172.250,111.380 171.632,111.600 171.195 C 111.820 170.758,112.180 170.042,112.400 169.605 C 112.620 169.168,112.800 168.611,112.800 168.366 C 112.800 167.932,113.698 165.700,114.434 164.305 C 114.635 163.923,114.800 163.259,114.800 162.829 C 114.800 162.399,114.980 161.936,115.200 161.800 C 115.420 161.664,115.600 161.149,115.600 160.656 C 115.600 160.163,115.755 159.589,115.944 159.380 C 116.133 159.171,116.620 158.010,117.025 156.800 C 117.430 155.590,117.905 154.429,118.081 154.220 C 118.256 154.011,118.400 153.514,118.400 153.115 C 118.400 152.716,118.562 152.077,118.759 151.695 C 118.956 151.313,119.428 150.190,119.807 149.200 C 120.873 146.414,121.264 145.457,121.640 144.716 C 122.375 143.267,121.662 142.757,119.081 142.882 C 116.495 143.008,115.303 144.058,115.229 146.276 C 115.213 146.758,115.020 147.264,114.800 147.400 C 114.580 147.536,114.400 147.969,114.400 148.362 C 114.400 149.015,113.726 150.729,112.774 152.495 C 112.568 152.877,112.400 153.541,112.400 153.971 C 112.400 154.401,112.220 154.864,112.000 155.000 C 111.780 155.136,111.600 155.676,111.600 156.200 C 111.600 156.724,111.420 157.264,111.200 157.400 C 110.980 157.536,110.800 157.982,110.800 158.391 C 110.800 158.800,110.500 159.735,110.132 160.468 C 108.896 162.936,108.800 163.187,108.800 163.971 C 108.800 164.401,108.620 164.864,108.400 165.000 C 108.180 165.136,108.000 165.651,108.000 166.144 C 108.000 166.637,107.845 167.211,107.656 167.420 C 107.467 167.629,106.980 168.790,106.575 170.000 C 106.170 171.210,105.695 172.371,105.519 172.580 C 105.344 172.789,105.200 173.286,105.200 173.685 C 105.200 174.084,105.038 174.723,104.840 175.105 C 104.015 176.697,102.398 181.050,102.399 181.676 C 102.399 182.048,102.220 182.464,102.000 182.600 C 101.780 182.736,101.579 183.242,101.554 183.724 C 101.511 184.526,101.493 184.533,101.333 183.800 C 101.237 183.360,101.010 182.640,100.827 182.200 C 100.645 181.760,100.183 180.590,99.800 179.600 C 98.663 176.658,98.325 175.837,97.953 175.105 C 97.759 174.723,97.600 174.166,97.600 173.867 C 97.600 173.361,96.846 171.523,95.974 169.905 C 95.768 169.523,95.600 168.936,95.600 168.600 C 95.600 168.264,95.441 167.677,95.247 167.295 C 94.706 166.231,94.131 164.797,93.365 162.600 C 92.982 161.500,92.518 160.429,92.334 160.220 C 92.150 160.011,92.000 159.514,92.000 159.115 C 92.000 158.716,91.838 158.077,91.640 157.695 C 91.442 157.313,90.798 155.740,90.208 154.200 C 89.619 152.660,88.971 151.087,88.768 150.705 C 88.566 150.323,88.400 149.678,88.400 149.272 C 88.400 148.866,88.281 148.414,88.135 148.268 C 87.989 148.122,87.546 147.084,87.150 145.961 C 86.018 142.745,86.134 142.800,80.507 142.800 L 75.511 142.800 75.781 144.240 C 76.028 145.558,76.758 147.532,77.649 149.295 C 77.842 149.677,78.000 150.264,78.000 150.600 C 78.000 150.936,78.169 151.523,78.375 151.905 C 78.581 152.287,79.226 153.950,79.807 155.600 C 80.389 157.250,81.007 158.960,81.182 159.400 C 81.357 159.840,81.696 160.689,81.935 161.286 C 82.209 161.971,82.228 162.459,81.985 162.609 C 81.773 162.740,81.600 163.199,81.600 163.629 C 81.600 164.059,81.438 164.723,81.241 165.105 C 81.044 165.487,80.575 166.610,80.200 167.600 C 79.825 168.590,79.356 169.713,79.159 170.095 C 78.962 170.477,78.800 171.064,78.800 171.400 C 78.800 171.736,78.620 172.368,78.400 172.805 C 78.180 173.242,77.820 173.958,77.600 174.395 C 77.380 174.832,77.200 175.455,77.200 175.781 C 77.200 176.325,76.404 178.409,75.551 180.095 C 75.358 180.477,75.200 181.041,75.200 181.349 C 75.200 183.483,74.167 183.897,73.455 182.049 C 73.064 181.032,72.576 179.887,72.371 179.505 C 72.167 179.123,72.000 178.536,72.000 178.200 C 72.000 177.864,71.838 177.277,71.640 176.895 C 71.442 176.513,70.798 174.940,70.208 173.400 C 69.619 171.860,68.971 170.287,68.768 169.905 C 68.566 169.523,68.400 168.936,68.400 168.600 C 68.400 168.264,68.241 167.677,68.047 167.295 C 67.665 166.544,67.279 165.602,66.207 162.800 C 65.828 161.810,65.356 160.687,65.159 160.305 C 64.962 159.923,64.800 159.336,64.800 159.000 C 64.800 158.664,64.638 158.077,64.441 157.695 C 64.244 157.313,63.772 156.190,63.393 155.200 C 62.628 153.200,62.177 152.042,61.640 150.700 C 61.443 150.205,61.056 149.170,60.780 148.400 C 60.162 146.670,59.236 144.399,58.824 143.600 C 58.450 142.876,44.000 142.469,44.000 143.182 M173.443 143.433 C 173.002 144.581,173.167 193.990,173.614 194.826 C 174.115 195.762,182.626 196.014,183.520 195.120 C 183.882 194.758,184.000 188.880,184.000 171.120 L 184.000 147.600 189.176 147.600 C 192.196 147.600,194.456 147.767,194.600 148.000 C 194.736 148.220,195.181 148.400,195.590 148.400 C 199.252 148.400,202.065 156.971,200.041 161.960 C 199.254 163.902,196.207 167.200,195.200 167.200 C 194.848 167.200,194.389 167.370,194.180 167.578 C 193.971 167.786,192.540 168.021,191.000 168.101 C 188.300 168.241,188.195 168.284,188.073 169.323 C 188.004 169.915,188.139 170.400,188.373 170.400 C 188.608 170.400,188.800 170.584,188.800 170.809 C 188.800 171.294,190.869 174.542,191.300 174.733 C 191.465 174.807,191.600 175.030,191.600 175.230 C 191.600 175.429,193.220 178.126,195.200 181.222 C 197.180 184.318,198.800 186.957,198.800 187.088 C 198.800 187.218,199.209 187.881,199.708 188.562 C 200.208 189.243,200.868 190.295,201.176 190.900 C 201.483 191.505,201.885 192.000,202.068 192.000 C 202.250 192.000,202.400 192.251,202.400 192.558 C 202.400 192.864,202.925 193.677,203.566 194.364 L 204.732 195.612 209.996 195.560 C 215.899 195.502,216.390 195.255,214.666 193.205 C 214.107 192.541,213.246 191.279,212.751 190.399 C 212.257 189.520,211.706 188.800,211.526 188.800 C 211.347 188.800,211.200 188.614,211.200 188.386 C 211.200 188.158,209.985 186.223,208.500 184.086 C 207.015 181.949,205.545 179.705,205.232 179.100 C 204.920 178.495,204.515 178.000,204.332 178.000 C 204.150 178.000,204.000 177.773,204.000 177.496 C 204.000 177.219,203.595 176.535,203.100 175.976 C 202.605 175.418,201.947 174.519,201.639 173.980 C 201.330 173.441,200.815 172.595,200.493 172.100 C 199.939 171.248,199.963 171.200,200.935 171.200 C 201.995 171.200,202.990 170.865,205.879 169.537 C 207.732 168.685,211.200 165.100,211.200 164.037 C 211.200 163.665,211.417 163.143,211.683 162.877 C 212.648 161.912,212.310 152.862,211.238 151.000 C 210.213 149.218,207.200 146.309,205.625 145.581 C 205.061 145.320,204.287 144.948,203.905 144.753 C 203.523 144.559,202.794 144.400,202.285 144.400 C 201.776 144.400,201.179 144.219,200.957 143.997 C 199.724 142.764,173.903 142.235,173.443 143.433 M221.789 143.288 C 221.681 143.569,221.639 155.410,221.696 169.600 L 221.800 195.400 236.400 195.511 C 253.929 195.645,252.877 195.802,252.720 193.087 L 252.600 191.000 242.910 190.893 C 233.357 190.787,233.213 190.773,232.710 189.893 C 232.320 189.209,232.153 183.611,232.000 166.000 L 231.800 143.000 226.892 142.888 C 223.188 142.803,221.936 142.901,221.789 143.288 M258.204 143.246 C 258.088 143.551,258.039 155.410,258.096 169.600 L 258.200 195.400 268.400 195.381 C 286.702 195.348,293.584 193.491,297.031 187.655 C 297.439 186.965,297.914 186.400,298.086 186.400 C 298.259 186.400,298.400 186.040,298.400 185.600 C 298.400 185.160,298.536 184.800,298.702 184.800 C 298.993 184.800,299.573 183.349,300.459 180.400 C 301.650 176.438,302.038 168.166,301.302 162.400 C 300.737 157.973,300.424 156.932,298.373 152.671 C 297.305 150.452,293.486 146.735,291.295 145.783 C 290.473 145.425,289.487 144.968,289.105 144.766 C 288.723 144.565,288.093 144.397,287.705 144.394 C 287.317 144.391,286.190 144.098,285.200 143.742 C 282.660 142.830,258.533 142.387,258.204 143.246 M198.600 144.000 C 199.480 144.200,200.740 144.476,201.400 144.612 C 205.390 145.437,209.280 148.255,210.752 151.387 C 212.317 154.717,211.855 162.319,209.908 165.292 C 208.109 168.037,203.276 170.800,200.272 170.800 C 199.127 170.800,199.503 171.705,202.400 175.916 C 203.940 178.155,205.200 180.064,205.200 180.160 C 205.200 180.299,211.895 190.192,213.091 191.820 C 213.714 192.668,214.400 193.999,214.400 194.360 C 214.400 194.564,212.243 194.749,209.587 194.772 C 204.298 194.818,203.883 194.643,202.390 191.734 C 202.069 191.110,201.221 189.747,200.504 188.704 C 199.787 187.661,199.200 186.712,199.200 186.594 C 199.200 186.371,196.697 182.554,196.001 181.717 C 195.781 181.451,195.600 181.140,195.600 181.026 C 195.600 180.912,194.160 178.560,192.400 175.800 C 190.640 173.040,189.200 170.606,189.200 170.391 C 189.200 170.176,189.020 170.000,188.800 170.000 C 188.580 170.000,188.400 169.719,188.400 169.376 C 188.400 169.019,188.591 168.871,188.847 169.029 C 190.273 169.910,197.459 167.078,198.975 165.036 C 202.100 160.830,201.986 153.620,198.738 149.937 C 196.655 147.576,195.095 147.104,189.200 147.050 L 183.800 147.000 183.600 170.800 L 183.400 194.600 178.600 194.600 L 173.800 194.600 173.696 169.600 C 173.639 155.850,173.679 144.375,173.784 144.100 C 174.015 143.495,195.997 143.406,198.600 144.000 M231.600 166.220 C 231.600 191.129,231.603 191.163,233.910 191.233 C 234.510 191.251,238.598 191.252,242.995 191.236 C 252.396 191.201,252.400 191.202,252.400 193.019 C 252.400 194.870,252.849 194.823,236.400 194.703 L 222.200 194.600 222.097 169.100 L 221.994 143.600 226.797 143.600 L 231.600 143.600 231.600 166.220 M285.134 144.254 C 296.836 147.124,300.947 153.615,300.935 169.200 C 300.927 179.117,299.567 184.100,295.702 188.381 C 290.922 193.675,285.183 194.940,267.000 194.708 L 258.600 194.600 258.497 169.100 L 258.394 143.600 270.431 143.600 C 280.217 143.600,282.967 143.722,285.134 144.254 M138.878 146.236 C 134.136 148.599,132.304 152.718,131.422 163.000 C 130.698 171.440,131.699 183.661,133.256 185.380 C 133.445 185.589,133.600 186.084,133.600 186.480 C 133.600 186.876,133.780 187.200,134.000 187.200 C 134.220 187.200,134.400 187.470,134.400 187.800 C 134.400 191.737,144.494 194.417,148.869 191.642 C 153.967 188.409,155.579 182.962,155.592 168.931 C 155.603 156.985,154.563 152.347,151.000 148.450 C 147.911 145.072,143.010 144.177,138.878 146.236 M146.168 145.948 C 146.286 146.140,146.882 146.398,147.492 146.522 C 148.645 146.756,151.600 149.201,151.600 149.921 C 151.600 150.148,151.750 150.393,151.934 150.467 C 152.513 150.698,154.313 156.095,154.646 158.600 C 155.369 164.040,154.861 182.016,153.957 182.980 C 153.760 183.189,153.600 183.604,153.600 183.902 C 153.600 185.935,149.459 191.600,147.973 191.600 C 147.574 191.600,147.136 191.780,147.000 192.000 C 146.864 192.220,145.334 192.400,143.600 192.400 C 141.866 192.400,140.336 192.220,140.200 192.000 C 140.064 191.780,139.632 191.600,139.240 191.600 C 137.180 191.600,133.940 186.697,132.625 181.588 C 131.834 178.512,131.634 159.032,132.379 157.639 C 132.611 157.206,132.800 156.487,132.800 156.040 C 132.800 155.308,133.115 154.441,134.555 151.200 C 136.214 147.469,144.728 143.618,146.168 145.948 M268.300 147.017 C 268.135 147.191,268.000 156.644,268.000 168.024 L 268.000 188.715 269.160 189.958 L 270.321 191.200 274.676 191.200 C 286.678 191.200,290.800 185.563,290.800 169.150 C 290.800 163.948,290.132 157.252,289.550 156.620 C 289.358 156.411,289.200 155.914,289.200 155.515 C 289.200 153.158,284.319 148.000,282.088 148.000 C 281.688 148.000,281.174 147.814,280.947 147.587 C 280.452 147.092,268.730 146.563,268.300 147.017 M280.772 148.055 C 285.275 149.491,287.373 151.675,289.170 156.800 C 290.248 159.872,290.133 176.089,288.995 181.400 C 288.335 184.481,285.745 187.902,283.200 189.052 C 279.469 190.739,279.000 190.830,274.642 190.715 C 268.031 190.541,268.621 192.727,268.504 167.971 L 268.407 147.600 273.875 147.600 C 276.883 147.600,279.986 147.805,280.772 148.055 M136.200 203.040 C 132.040 204.164,128.215 206.262,126.143 208.557 C 124.185 210.725,121.600 215.710,121.600 217.318 C 121.600 217.887,121.445 218.449,121.254 218.566 C 120.288 219.164,119.877 234.392,120.692 239.400 C 121.572 244.805,121.776 245.414,124.171 249.784 C 124.998 251.294,127.747 254.010,129.469 255.019 C 134.409 257.914,136.107 258.136,153.600 258.170 L 169.000 258.200 169.118 257.187 C 169.248 256.077,167.635 255.200,165.466 255.200 C 164.874 255.200,163.987 254.992,163.495 254.738 C 163.003 254.484,162.330 254.150,162.000 253.997 C 161.316 253.680,160.946 251.611,161.508 251.243 C 162.075 250.873,163.785 247.974,164.365 246.400 C 164.649 245.630,165.029 244.640,165.210 244.200 C 165.391 243.760,165.656 242.590,165.799 241.600 C 165.943 240.610,166.213 238.900,166.401 237.800 C 166.855 235.133,166.836 225.556,166.370 222.800 C 166.166 221.590,165.885 219.831,165.746 218.891 C 165.607 217.951,165.338 217.085,165.147 216.967 C 164.956 216.849,164.800 216.401,164.800 215.971 C 164.800 215.541,164.640 214.877,164.444 214.495 C 164.249 214.113,163.758 213.125,163.353 212.300 C 162.949 211.475,162.479 210.800,162.309 210.800 C 162.139 210.800,161.997 210.575,161.993 210.300 C 161.982 209.415,157.189 205.200,156.195 205.200 C 155.868 205.200,155.600 205.020,155.600 204.800 C 155.600 204.580,155.328 204.400,154.995 204.400 C 154.662 204.400,154.077 204.228,153.695 204.017 C 150.784 202.415,140.617 201.846,136.200 203.040 M149.094 203.249 C 159.595 205.722,163.583 210.186,165.666 221.800 C 166.650 227.285,166.021 241.950,164.740 243.380 C 164.553 243.589,164.400 244.163,164.400 244.656 C 164.400 245.149,164.220 245.664,164.000 245.800 C 163.780 245.936,163.600 246.315,163.600 246.643 C 163.600 246.970,163.004 248.175,162.276 249.319 C 159.510 253.665,160.116 254.627,166.500 256.024 C 168.540 256.471,169.792 257.575,168.300 257.612 C 163.289 257.736,139.678 257.538,138.210 257.359 C 130.365 256.406,125.269 252.294,122.397 244.600 C 120.431 239.334,120.055 226.305,121.659 219.000 C 123.490 210.661,128.940 205.045,136.565 203.639 C 137.866 203.399,139.021 203.112,139.132 203.002 C 139.520 202.613,147.207 202.804,149.094 203.249 M335.100 204.300 L 314.400 204.407 314.400 206.404 L 314.400 208.400 322.000 208.400 L 329.600 208.400 329.600 232.176 C 329.600 247.950,329.738 256.038,330.009 256.206 C 330.356 256.420,337.940 256.603,340.097 256.450 C 340.750 256.403,340.800 254.893,340.897 232.500 L 341.000 208.600 348.600 208.387 L 356.200 208.173 348.733 208.087 C 344.626 208.039,340.981 208.109,340.633 208.243 C 340.066 208.460,340.000 210.948,340.000 232.243 L 340.000 256.000 335.203 256.000 L 330.406 256.000 330.303 232.100 L 330.200 208.200 322.500 208.091 L 314.800 207.983 314.800 206.391 L 314.800 204.800 335.400 204.800 C 348.867 204.800,356.000 204.661,356.000 204.400 C 356.000 204.180,355.955 204.043,355.900 204.096 C 355.845 204.149,346.485 204.241,335.100 204.300 M173.375 204.922 C 172.858 206.268,173.398 246.196,173.949 247.400 C 176.254 252.433,176.785 253.184,179.400 255.106 C 180.723 256.078,183.706 257.219,186.200 257.707 C 189.205 258.295,199.232 258.528,199.738 258.022 C 199.970 257.790,200.619 257.597,201.180 257.594 C 202.437 257.587,205.062 256.698,205.693 256.067 C 205.950 255.810,206.357 255.600,206.597 255.600 C 207.847 255.600,212.000 250.075,212.000 248.411 C 212.000 247.991,212.154 247.552,212.341 247.436 C 212.991 247.035,213.182 241.723,213.215 223.200 L 213.249 204.600 210.224 204.483 L 207.200 204.366 207.200 223.711 C 207.200 246.054,207.056 247.208,203.820 250.726 C 201.733 252.995,200.393 253.400,194.962 253.400 C 188.859 253.400,187.006 252.562,185.455 249.099 C 184.329 246.586,184.248 245.226,184.025 225.000 L 183.800 204.600 178.692 204.488 C 174.668 204.400,173.540 204.492,173.375 204.922 M215.600 205.372 C 215.600 206.272,218.421 207.600,220.334 207.600 C 220.971 207.600,222.155 209.575,222.971 212.000 C 223.379 213.210,223.867 214.371,224.056 214.580 C 224.245 214.789,224.400 215.374,224.400 215.880 C 224.400 216.386,224.580 216.800,224.800 216.800 C 225.020 216.800,225.200 217.118,225.200 217.506 C 225.200 217.894,225.578 219.199,226.040 220.406 C 226.502 221.613,226.973 223.008,227.088 223.506 C 227.202 224.004,227.454 224.510,227.648 224.630 C 227.841 224.749,228.000 225.199,228.000 225.629 C 228.000 226.059,228.169 226.723,228.375 227.105 C 228.581 227.487,229.223 229.150,229.800 230.800 C 230.377 232.450,231.019 234.113,231.225 234.495 C 231.431 234.877,231.600 235.516,231.600 235.915 C 231.600 236.314,231.744 236.811,231.919 237.020 C 232.095 237.229,232.570 238.390,232.975 239.600 C 233.380 240.810,233.867 241.971,234.056 242.180 C 234.245 242.389,234.400 242.963,234.400 243.456 C 234.400 243.949,234.580 244.464,234.800 244.600 C 235.020 244.736,235.200 245.199,235.200 245.629 C 235.200 246.059,235.362 246.723,235.559 247.105 C 235.756 247.487,236.228 248.610,236.607 249.600 C 237.679 252.402,238.065 253.344,238.447 254.095 C 238.641 254.477,238.800 255.152,238.800 255.595 C 238.800 256.486,238.747 256.475,243.400 256.551 C 247.255 256.614,248.400 256.306,248.400 255.204 C 248.400 254.756,248.562 254.077,248.759 253.695 C 248.956 253.313,249.425 252.190,249.800 251.200 C 250.175 250.210,250.644 249.087,250.841 248.705 C 251.038 248.323,251.200 247.736,251.200 247.400 C 251.200 247.064,251.380 246.432,251.600 245.995 C 252.571 244.066,252.714 243.703,252.980 242.491 C 253.135 241.786,253.428 241.106,253.631 240.981 C 253.834 240.855,254.000 240.401,254.000 239.971 C 254.000 239.541,254.180 238.832,254.400 238.395 C 254.620 237.958,254.980 237.242,255.200 236.805 C 255.420 236.368,255.600 235.684,255.600 235.285 C 255.600 234.886,255.755 234.389,255.944 234.180 C 256.133 233.971,256.620 232.810,257.025 231.600 C 257.430 230.390,257.905 229.229,258.081 229.020 C 258.256 228.811,258.400 228.314,258.400 227.915 C 258.400 227.516,258.569 226.877,258.775 226.495 C 258.981 226.113,259.623 224.450,260.200 222.800 C 260.777 221.150,261.419 219.487,261.625 219.105 C 261.831 218.723,262.000 218.136,262.000 217.800 C 262.000 217.464,262.162 216.877,262.359 216.495 C 262.556 216.113,263.025 214.990,263.400 214.000 C 263.775 213.010,264.244 211.887,264.441 211.505 C 264.638 211.123,264.800 210.459,264.800 210.029 C 264.800 209.599,264.980 209.136,265.200 209.000 C 265.420 208.864,265.600 208.397,265.600 207.962 C 265.600 207.528,265.897 206.719,266.259 206.165 C 267.197 204.735,266.566 204.337,263.587 204.479 C 261.278 204.589,261.028 204.688,260.760 205.600 C 260.598 206.150,260.090 207.587,259.633 208.794 C 259.175 210.001,258.800 211.306,258.800 211.694 C 258.800 212.082,258.620 212.400,258.400 212.400 C 258.180 212.400,258.000 212.762,258.000 213.205 C 258.000 213.648,257.838 214.323,257.641 214.705 C 257.444 215.087,256.972 216.210,256.593 217.200 C 255.145 220.983,256.303 220.612,246.286 220.503 C 241.399 220.449,237.279 220.404,237.132 220.403 C 236.984 220.401,236.745 219.862,236.601 219.205 C 236.457 218.547,236.172 217.906,235.969 217.781 C 235.766 217.655,235.600 217.201,235.600 216.771 C 235.600 216.341,235.441 215.677,235.247 215.295 C 234.706 214.231,234.131 212.797,233.365 210.600 C 232.982 209.500,232.518 208.429,232.334 208.220 C 232.150 208.011,232.000 207.426,232.000 206.920 C 232.000 206.414,231.820 206.000,231.600 206.000 C 231.380 206.000,231.200 205.640,231.200 205.200 C 231.200 204.427,230.933 204.400,223.400 204.400 L 215.600 204.400 215.600 205.372 M271.067 204.667 C 270.920 204.813,270.800 216.417,270.800 230.453 C 270.800 259.262,270.468 256.608,274.091 256.722 C 276.944 256.812,276.835 257.736,276.711 234.607 C 276.650 223.273,276.693 214.000,276.806 214.000 C 276.919 214.000,277.322 214.675,277.701 215.500 C 278.081 216.325,278.841 217.720,279.391 218.600 C 279.941 219.480,280.570 220.560,280.789 221.000 C 281.007 221.440,281.630 222.520,282.172 223.400 C 282.715 224.280,283.409 225.450,283.715 226.000 C 285.757 229.673,286.596 231.121,287.192 232.000 C 287.565 232.550,287.985 233.270,288.126 233.600 C 288.268 233.930,288.835 234.920,289.387 235.800 C 289.940 236.680,290.570 237.760,290.789 238.200 C 291.007 238.640,291.630 239.720,292.172 240.600 C 292.715 241.480,293.409 242.650,293.715 243.200 C 295.690 246.752,296.594 248.320,297.172 249.200 C 297.533 249.750,298.092 250.740,298.414 251.400 C 298.735 252.060,299.089 252.690,299.199 252.800 C 299.542 253.142,300.385 254.560,300.770 255.445 C 300.973 255.910,301.378 256.370,301.669 256.466 C 302.680 256.799,310.438 256.522,310.821 256.139 C 311.062 255.898,311.167 246.159,311.103 230.177 L 311.000 204.600 308.100 204.482 L 305.200 204.365 305.154 224.882 C 305.128 236.167,305.020 245.059,304.913 244.642 C 304.806 244.225,304.385 243.325,303.976 242.642 C 303.568 241.959,302.920 240.770,302.538 240.000 C 302.155 239.230,301.741 238.510,301.617 238.400 C 301.493 238.290,301.038 237.525,300.605 236.700 C 300.172 235.875,299.723 235.200,299.607 235.200 C 299.490 235.200,299.143 234.615,298.835 233.900 C 298.527 233.185,297.968 232.150,297.594 231.600 C 296.960 230.667,296.503 229.872,293.746 224.900 C 293.167 223.855,292.556 222.820,292.388 222.600 C 292.126 222.255,291.035 220.335,289.436 217.400 C 289.196 216.960,288.910 216.510,288.799 216.400 C 288.689 216.290,288.335 215.660,288.014 215.000 C 287.692 214.340,287.062 213.267,286.614 212.615 C 286.166 211.964,285.530 210.883,285.200 210.214 C 284.870 209.544,283.973 207.962,283.207 206.698 L 281.813 204.400 276.573 204.400 C 273.691 204.400,271.213 204.520,271.067 204.667 M183.600 225.140 C 183.600 245.455,183.652 246.337,185.026 249.432 C 187.768 255.609,199.684 256.318,204.714 250.603 C 207.464 247.478,207.600 246.230,207.600 224.043 L 207.600 204.800 210.226 204.800 L 212.852 204.800 212.705 225.300 C 212.590 241.244,212.437 246.111,212.018 247.200 C 208.784 255.600,205.510 257.410,193.600 257.383 C 186.031 257.367,185.428 257.273,181.200 255.460 C 179.275 254.635,175.600 251.045,175.600 249.990 C 175.600 249.770,175.428 249.277,175.217 248.895 C 173.744 246.219,173.600 244.027,173.600 224.238 L 173.600 204.800 178.600 204.800 L 183.600 204.800 183.600 225.140 M230.800 205.405 C 230.800 205.738,230.962 206.323,231.160 206.705 C 231.358 207.087,232.006 208.660,232.599 210.200 C 233.192 211.740,233.828 213.360,234.011 213.800 C 234.389 214.710,235.958 219.063,236.268 220.063 C 236.584 221.080,237.566 221.189,246.526 221.195 C 255.295 221.200,256.400 221.007,256.400 219.466 C 256.400 218.968,256.555 218.389,256.744 218.180 C 256.933 217.971,257.420 216.810,257.825 215.600 C 258.230 214.390,258.705 213.229,258.881 213.020 C 259.056 212.811,259.200 212.314,259.200 211.915 C 259.200 211.516,259.372 210.877,259.583 210.495 C 259.794 210.113,260.358 208.675,260.837 207.300 L 261.707 204.800 264.047 204.800 L 266.387 204.800 265.738 206.300 C 264.846 208.363,264.604 208.987,263.457 212.200 C 262.908 213.740,262.072 216.080,261.601 217.400 C 261.129 218.720,260.591 220.160,260.404 220.600 C 260.217 221.040,259.584 222.750,258.998 224.400 C 257.498 228.621,256.397 231.633,255.927 232.800 C 255.705 233.350,255.262 234.610,254.942 235.600 C 254.622 236.590,254.203 237.760,254.012 238.200 C 253.821 238.640,253.189 240.350,252.607 242.000 C 252.026 243.650,251.381 245.313,251.175 245.695 C 250.969 246.077,250.800 246.716,250.800 247.115 C 250.800 247.514,250.656 248.011,250.481 248.220 C 250.305 248.429,249.830 249.590,249.425 250.800 C 249.020 252.010,248.533 253.171,248.344 253.380 C 248.155 253.589,248.000 254.155,248.000 254.637 C 248.000 256.198,239.838 256.823,239.351 255.300 C 239.115 254.561,238.809 253.762,238.012 251.800 C 237.744 251.140,237.262 249.790,236.942 248.800 C 236.622 247.810,236.198 246.640,236.000 246.200 C 235.802 245.760,235.367 244.590,235.033 243.600 C 233.896 240.230,233.349 238.815,233.074 238.541 C 232.923 238.390,232.800 237.934,232.800 237.528 C 232.800 237.122,232.631 236.477,232.425 236.095 C 232.219 235.713,231.574 234.050,230.993 232.400 C 230.411 230.750,229.782 229.040,229.594 228.600 C 229.406 228.160,228.766 226.360,228.171 224.600 C 227.577 222.840,226.935 221.229,226.745 221.020 C 226.555 220.811,226.400 220.262,226.400 219.800 C 226.400 219.338,226.257 218.789,226.082 218.580 C 225.907 218.371,225.536 217.480,225.257 216.600 C 224.798 215.149,224.238 213.638,223.105 210.800 C 221.903 207.788,220.860 206.892,218.004 206.419 C 217.118 206.272,216.560 205.935,216.475 205.494 C 216.352 204.856,216.925 204.800,223.571 204.800 C 229.759 204.800,230.800 204.887,230.800 205.405 M282.563 206.700 C 283.199 207.745,284.258 209.590,284.916 210.800 C 285.574 212.010,286.357 213.284,286.656 213.631 C 286.955 213.979,287.200 214.379,287.200 214.520 C 287.200 214.661,288.010 216.147,289.000 217.822 C 289.990 219.496,290.800 220.938,290.800 221.025 C 290.800 221.113,291.430 222.169,292.200 223.373 C 292.970 224.577,293.600 225.750,293.600 225.981 C 293.600 226.211,293.780 226.400,294.000 226.400 C 294.220 226.400,294.400 226.563,294.400 226.762 C 294.400 227.080,294.973 228.140,298.027 233.474 C 298.429 234.175,299.217 235.476,299.779 236.366 C 300.340 237.256,300.800 238.074,300.800 238.184 C 300.800 238.294,301.397 239.333,302.126 240.492 C 302.856 241.652,303.764 243.275,304.145 244.100 C 305.913 247.930,306.002 246.979,305.897 225.200 L 305.800 204.800 308.100 204.800 L 310.400 204.800 310.400 230.400 L 310.400 256.000 306.060 256.000 L 301.720 256.000 300.460 253.973 C 299.767 252.859,299.200 251.884,299.200 251.806 C 299.200 251.729,298.390 250.296,297.400 248.622 C 296.410 246.947,295.600 245.496,295.600 245.396 C 295.600 245.297,294.970 244.231,294.200 243.027 C 293.430 241.823,292.800 240.723,292.800 240.581 C 292.800 240.439,292.466 239.846,292.057 239.262 C 291.649 238.678,290.861 237.390,290.307 236.400 C 289.752 235.410,288.624 233.430,287.800 232.000 C 286.976 230.570,285.848 228.590,285.293 227.600 C 284.739 226.610,283.951 225.322,283.543 224.738 C 283.134 224.154,282.800 223.576,282.800 223.454 C 282.800 223.331,281.855 221.646,280.700 219.710 C 279.545 217.773,278.243 215.515,277.808 214.691 C 276.280 211.806,276.203 212.688,276.109 234.233 C 276.058 245.655,276.013 255.225,276.009 255.500 C 276.003 255.838,275.289 256.000,273.800 256.000 L 271.600 256.000 271.600 230.400 L 271.600 204.800 276.503 204.800 L 281.406 204.800 282.563 206.700 M140.400 206.777 C 140.070 206.959,139.263 207.353,138.606 207.654 C 132.759 210.328,130.252 220.445,131.462 236.482 C 131.982 243.382,132.268 244.687,134.154 248.766 C 138.018 257.129,150.577 255.625,153.800 246.414 C 155.566 241.369,156.374 225.447,155.165 219.531 C 153.746 212.589,151.853 209.196,148.529 207.636 C 147.908 207.345,147.087 206.948,146.705 206.753 C 145.840 206.313,141.211 206.331,140.400 206.777 M146.422 207.373 C 152.859 209.196,154.882 214.626,154.924 230.200 C 154.956 242.208,154.321 245.475,150.959 250.606 C 149.890 252.237,146.600 253.600,143.730 253.600 C 138.367 253.600,135.137 251.029,133.426 245.400 C 133.025 244.080,132.535 242.576,132.338 242.058 C 131.830 240.725,131.877 219.778,132.389 218.820 C 132.615 218.398,132.800 217.687,132.800 217.240 C 132.800 216.508,133.115 215.641,134.555 212.400 C 136.364 208.332,141.749 206.051,146.422 207.373 M238.189 224.818 C 238.047 225.047,238.093 225.452,238.291 225.718 C 238.489 225.983,239.149 227.550,239.758 229.200 C 240.367 230.850,241.017 232.560,241.202 233.000 C 241.387 233.440,241.853 234.700,242.238 235.800 C 242.623 236.900,243.054 237.980,243.197 238.200 C 243.339 238.420,243.700 239.410,243.998 240.400 C 244.295 241.390,244.688 242.371,244.870 242.580 C 245.051 242.789,245.203 243.329,245.206 243.780 C 245.226 246.424,246.700 246.193,247.630 243.400 C 248.069 242.080,248.587 240.640,248.782 240.200 C 248.977 239.760,249.615 238.050,250.200 236.400 C 250.785 234.750,251.417 233.040,251.604 232.600 C 251.996 231.674,253.977 226.135,254.285 225.100 C 254.532 224.271,238.699 223.993,238.189 224.818 M253.600 225.115 C 253.600 225.622,252.157 229.577,251.865 229.868 C 251.719 230.014,251.600 230.543,251.600 231.043 C 251.600 231.543,251.420 232.064,251.200 232.200 C 250.980 232.336,250.800 232.782,250.800 233.191 C 250.800 233.600,250.500 234.535,250.132 235.268 C 248.901 237.725,248.800 237.986,248.800 238.715 C 248.800 239.114,248.648 239.611,248.463 239.820 C 248.277 240.029,247.808 241.244,247.420 242.519 C 246.700 244.883,245.913 245.354,245.666 243.569 C 245.593 243.036,245.368 242.429,245.166 242.220 C 244.965 242.011,244.800 241.514,244.800 241.115 C 244.800 240.716,244.638 240.077,244.441 239.695 C 244.244 239.313,243.772 238.190,243.393 237.200 C 242.321 234.398,241.935 233.456,241.553 232.705 C 241.359 232.323,241.200 231.659,241.200 231.229 C 241.200 230.799,241.020 230.336,240.800 230.200 C 240.580 230.064,240.400 229.693,240.400 229.374 C 240.400 229.056,239.966 227.897,239.436 226.798 L 238.472 224.800 246.036 224.800 C 250.196 224.800,253.600 224.942,253.600 225.115 M347.953 248.353 C 343.312 252.994,349.985 259.741,354.730 255.206 C 355.429 254.539,356.000 253.780,356.000 253.520 C 356.000 253.260,355.745 253.396,355.433 253.823 C 354.686 254.844,354.274 254.385,354.768 253.084 C 354.983 252.519,355.065 251.369,354.951 250.528 C 354.756 249.089,354.780 249.045,355.372 249.776 C 356.020 250.578,356.314 249.859,355.694 248.986 C 353.799 246.318,350.276 246.030,347.953 248.353 M353.800 248.000 C 354.211 248.454,354.324 248.800,354.062 248.800 C 353.808 248.800,353.600 248.620,353.600 248.400 C 353.600 247.738,349.764 247.920,349.192 248.610 C 348.914 248.945,348.593 249.126,348.479 249.012 C 348.365 248.898,348.598 248.444,348.998 248.002 C 349.998 246.897,352.801 246.896,353.800 248.000 M352.305 248.675 C 351.922 248.775,351.202 248.779,350.705 248.683 C 350.207 248.587,350.520 248.505,351.400 248.501 C 352.280 248.496,352.687 248.575,352.305 248.675 M349.200 254.742 C 350.521 255.840,352.799 255.891,353.077 254.828 C 353.197 254.368,353.506 254.143,353.839 254.270 C 354.686 254.595,354.524 254.954,353.172 255.753 C 350.423 257.377,347.200 255.191,347.200 251.703 C 347.200 248.845,347.766 248.714,348.000 251.518 C 348.161 253.440,348.397 254.074,349.200 254.742 M349.302 251.100 C 349.020 253.783,348.400 254.205,348.400 251.713 C 348.400 250.450,348.591 249.589,348.900 249.465 C 349.175 249.354,349.423 249.249,349.451 249.232 C 349.479 249.214,349.412 250.055,349.302 251.100 M352.918 249.909 C 353.357 250.394,353.442 250.805,353.186 251.209 C 352.980 251.534,352.809 252.205,352.806 252.700 C 352.803 253.195,352.632 253.600,352.427 253.600 C 351.863 253.600,351.535 252.198,351.827 251.034 C 352.031 250.223,351.939 250.000,351.400 250.000 C 350.873 250.000,350.770 250.226,350.956 250.968 C 351.225 252.037,350.913 253.200,350.357 253.200 C 349.946 253.200,349.865 249.868,350.267 249.467 C 350.779 248.955,352.281 249.206,352.918 249.909 M354.400 251.443 C 354.400 252.409,354.231 253.200,354.024 253.200 C 353.337 253.200,353.184 252.473,353.654 251.442 C 354.015 250.649,354.004 250.286,353.602 249.803 C 353.167 249.279,353.189 249.221,353.743 249.434 C 354.214 249.614,354.400 250.183,354.400 251.443 M352.400 255.046 C 352.400 255.131,351.914 255.200,351.320 255.200 C 350.480 255.200,350.347 255.093,350.720 254.720 C 350.984 254.456,351.201 253.871,351.202 253.420 C 351.205 252.737,351.305 252.792,351.802 253.746 C 352.131 254.376,352.400 254.961,352.400 255.046 M134.920 355.898 C 136.855 355.972,139.915 355.971,141.720 355.897 C 143.524 355.823,141.940 355.763,138.200 355.764 C 134.460 355.764,132.984 355.825,134.920 355.898 M308.700 355.898 C 310.735 355.971,314.065 355.971,316.100 355.898 C 318.135 355.825,316.470 355.766,312.400 355.766 C 308.330 355.766,306.665 355.825,308.700 355.898 M349.300 355.876 C 349.685 355.976,350.315 355.976,350.700 355.876 C 351.085 355.775,350.770 355.693,350.000 355.693 C 349.230 355.693,348.915 355.775,349.300 355.876 " stroke="none" fill="#9e9c9c" fill-rule="evenodd"></path></g></svg>